<svg id="图层_1" data-name="图层 1" xmlns="http://www.w3.org/2000/svg" viewBox="0 0 1370.58 1456.7"><defs><style>.cls-1{fill:#d7e2db;}.cls-2{fill:#e5b85e;}.cls-3{fill:#e05555;}</style></defs><title>logo 2019</title><polygon class="cls-1" points="1339.43 287.75 1308.28 269.75 1277.13 287.75 1245.98 305.73 1277.13 323.71 1308.28 341.7 1339.43 323.71 1370.58 305.73 1339.43 287.75"/><polygon class="cls-1" points="1245.98 485.56 1214.83 503.55 1183.68 521.53 1214.83 539.51 1245.98 557.5 1277.13 539.51 1308.28 521.53 1277.13 503.55 1245.98 485.56"/><polygon class="cls-1" points="1214.83 719.37 1214.83 719.35 1183.69 701.38 1183.68 701.39 1152.53 719.37 1152.53 755.33 1152.53 755.34 1152.53 791.3 1183.68 773.32 1214.83 755.34 1214.83 755.33 1245.98 737.35 1245.98 737.33 1214.84 719.35 1214.83 719.37"/><polygon class="cls-1" points="1214.83 287.75 1245.98 269.75 1277.13 251.78 1245.98 233.8 1214.83 215.8 1183.68 197.82 1152.53 179.84 1152.53 215.8 1152.53 251.78 1152.53 287.75 1152.53 323.71 1183.68 305.73 1214.83 287.75"/><polygon class="cls-1" points="1121.38 413.63 1090.23 395.65 1059.08 413.63 1027.93 431.61 1059.08 449.6 1090.23 467.58 1121.38 449.6 1152.53 431.61 1121.38 413.63"/><polygon class="cls-1" points="965.63 467.58 934.5 485.56 934.49 485.56 934.49 485.57 903.35 503.55 903.34 503.55 872.2 521.53 872.19 521.53 841.04 539.52 809.89 557.5 778.74 575.49 747.59 593.47 716.44 611.45 685.29 629.44 716.44 647.42 747.59 665.4 778.74 647.42 809.89 629.44 841.04 611.45 872.19 593.47 903.34 575.49 903.34 575.48 934.49 557.5 934.5 557.5 965.63 539.52 965.63 539.51 996.78 521.53 1027.93 503.55 996.78 485.56 965.63 467.58"/><polygon class="cls-1" points="965.63 1186.94 934.49 1204.92 934.49 1204.94 903.34 1222.92 872.19 1240.9 841.04 1258.88 841.04 1258.89 809.89 1276.87 809.89 1312.84 809.89 1348.8 841.04 1330.82 872.19 1312.84 872.19 1312.83 903.34 1294.85 934.49 1276.87 965.63 1258.89 965.63 1258.88 996.78 1240.9 1027.93 1222.92 996.78 1204.94 965.63 1186.94"/><polygon class="cls-1" points="716.44 251.76 747.59 233.78 716.44 215.8 685.29 197.81 654.14 215.8 622.99 233.78 654.14 251.76 685.29 233.78 716.44 251.76"/><path class="cls-1" d="M937.7,937.05V1224.8h0v503.54l31.15-18,31.15-18V901.09l-31.15,18Zm31.15,305.74h0Z" transform="translate(-314.71 -271.65)"/><polygon class="cls-1" points="654.14 287.73 685.29 305.71 716.44 287.73 747.59 269.75 716.44 251.76 685.29 269.75 654.14 251.76 622.99 269.75 654.14 287.73"/><polygon class="cls-1" points="436.09 989.12 436.08 989.12 404.94 971.14 404.94 1007.1 404.94 1007.11 404.94 1043.07 404.94 1079.03 404.94 1079.04 404.94 1115 404.94 1115.02 404.94 1150.97 404.94 1150.99 404.94 1186.94 404.94 1222.92 404.94 1258.88 404.94 1258.89 404.94 1294.85 404.94 1294.86 404.94 1330.82 436.09 1312.84 467.24 1294.85 467.24 1258.89 467.24 1258.88 467.24 1222.92 467.24 1186.94 467.24 1150.99 467.24 1150.97 467.24 1115.02 467.24 1079.04 467.24 1079.03 467.24 1043.07 467.24 1007.11 467.24 1007.1 467.23 1007.1 436.09 989.12"/><polygon class="cls-1" points="436.09 629.43 404.94 611.45 404.94 611.47 404.94 647.42 404.94 683.38 404.94 683.39 404.94 719.35 404.94 719.37 404.94 755.33 404.94 791.28 404.94 791.3 404.94 827.27 404.94 863.23 404.94 863.24 404.94 899.2 436.08 881.22 436.09 881.22 467.23 863.24 467.24 863.24 467.24 863.23 467.24 827.27 467.24 827.26 467.24 791.3 467.24 755.33 467.24 719.37 467.24 719.35 467.24 683.39 467.24 683.38 467.24 647.42 436.09 629.44 436.09 629.43"/><polygon class="cls-1" points="280.35 467.58 280.35 503.55 280.35 539.51 280.35 539.52 280.35 575.48 280.35 611.45 280.35 647.41 280.35 647.42 280.35 683.38 280.35 683.39 280.35 719.35 280.35 719.37 280.35 755.33 280.35 755.34 280.35 791.3 280.35 827.27 280.35 863.23 280.35 863.24 280.35 899.2 280.35 935.17 280.35 971.13 280.35 971.14 280.35 1007.1 280.35 1043.07 280.35 1079.04 280.35 1115 280.35 1115.02 280.35 1150.97 280.35 1186.94 280.35 1222.92 280.35 1258.88 280.35 1258.89 280.36 1258.89 311.5 1240.91 311.5 1240.9 311.51 1240.9 342.64 1222.92 342.64 1186.96 342.64 1186.94 342.64 1150.97 342.64 1115.02 342.64 1115 342.64 1079.04 342.64 1079.03 342.64 1043.07 342.64 1007.11 342.64 1007.1 342.64 971.14 342.64 971.13 342.64 935.17 342.64 899.2 342.64 863.24 342.64 863.23 342.64 827.27 342.64 791.3 342.64 755.33 342.64 719.37 342.64 719.35 342.64 683.39 342.64 683.38 342.64 647.42 342.64 611.45 342.64 575.48 342.64 539.52 342.64 539.51 342.64 503.55 342.64 467.58 342.64 431.62 342.64 431.61 311.5 449.6 280.35 467.58"/><polygon class="cls-1" points="62.3 341.7 62.3 377.66 62.3 413.63 62.3 449.6 62.3 485.56 62.3 521.53 62.3 557.5 62.3 593.46 62.3 629.43 62.3 629.44 62.3 665.4 62.3 665.42 62.3 701.38 93.44 683.39 93.45 683.38 124.59 665.4 124.6 665.4 124.6 629.43 124.6 593.46 124.6 557.5 124.6 521.53 124.6 485.56 124.6 449.6 124.6 413.63 124.6 377.66 124.6 341.7 124.6 305.73 93.45 323.71 62.3 341.7"/><polygon class="cls-1" points="62.3 773.32 62.3 809.29 62.3 845.25 62.3 881.22 62.3 917.19 62.3 953.15 62.3 989.12 62.3 1025.09 62.3 1061.05 62.3 1097.02 62.3 1132.99 93.45 1115 124.6 1097.02 124.6 1061.05 124.6 1025.09 124.6 989.12 124.6 953.15 124.6 917.19 124.6 881.22 124.6 845.25 124.6 809.29 93.45 791.3 62.3 773.32"/><path class="cls-2" d="M1093.45,487.45l-31.15-18-31.15-18-31.15-18-31.15,18-31.15,18-31.15,18-31.15,18-31.15,18v0l31.15,18,31.15,18,31.15,18v0l31.15,18,31.15,18,31.15-18,31.15-18v0l31.15-18,31.15-18,31.15-18v0l-31.15-18Zm-62.3,71.93-31.15,18-31.15-18-31.15-18,31.15-18-31.15-18,31.15-18,31.15-18,31.15,18,31.15,18-31.15,18,31.15,18Z" transform="translate(-314.71 -271.65)"/><polygon class="cls-2" points="1277.13 323.71 1245.98 305.73 1245.98 341.7 1245.98 377.66 1245.98 413.63 1245.98 449.6 1245.98 485.56 1277.13 503.55 1308.28 521.53 1308.28 485.56 1308.28 449.6 1308.28 413.63 1308.28 377.66 1308.28 341.7 1277.13 323.71"/><polygon class="cls-2" points="1245.98 881.22 1245.98 917.19 1245.98 953.15 1245.98 989.12 1245.98 1025.09 1245.98 1061.05 1245.98 1097.02 1277.13 1115 1308.28 1132.99 1308.28 1097.02 1308.28 1061.05 1308.28 1025.09 1308.28 989.12 1308.28 953.15 1308.28 917.19 1277.13 899.2 1245.98 881.22"/><path class="cls-2" d="M1560.69,973V829.15l-31.15-18-31.15-18v71.93h0V973h0l31.14,18h0l31.14,18Zm-31.15-18v0Z" transform="translate(-314.71 -271.65)"/><polygon class="cls-2" points="1027.93 431.61 1027.93 431.62 1027.93 467.58 1027.93 503.55 1027.93 539.51 1027.93 539.52 1027.93 575.48 1027.93 611.45 1027.93 647.42 1027.93 683.38 1027.93 683.39 1027.93 719.35 1027.93 719.37 1027.93 755.33 1027.93 791.3 1027.93 827.27 1027.93 863.23 1027.93 863.24 1027.93 899.2 1027.93 935.17 1027.93 971.13 1027.93 971.14 1027.93 1007.1 1027.93 1007.11 1027.93 1043.07 1027.93 1079.03 1027.93 1079.04 1027.93 1115 1027.93 1115.02 1027.93 1150.97 1027.93 1186.94 1027.93 1186.96 1027.93 1222.92 1059.07 1240.9 1059.08 1240.9 1059.08 1240.91 1090.22 1258.89 1090.23 1258.89 1090.23 1258.88 1090.23 1222.92 1090.23 1186.94 1090.23 1150.97 1090.23 1115.02 1090.23 1115 1090.23 1079.04 1090.23 1043.07 1090.23 1007.1 1090.23 971.14 1090.23 971.13 1090.23 935.17 1090.23 899.2 1090.23 863.24 1090.23 863.23 1090.23 827.27 1090.23 791.3 1090.23 755.34 1090.23 755.33 1090.23 719.37 1090.23 719.35 1090.23 683.39 1090.23 683.38 1090.23 647.42 1090.23 647.41 1090.23 611.45 1090.23 575.48 1090.23 539.52 1090.23 539.51 1090.23 503.55 1090.23 467.58 1059.08 449.6 1027.93 431.61"/><path class="cls-2" d="M1000,901.09v791.3l31.15,18,31.15,18V1224.81h0V937.05l-31.15-18Zm31.15,341.7h0Z" transform="translate(-314.71 -271.65)"/><polygon class="cls-2" points="622.99 593.47 591.84 575.49 560.69 557.5 529.54 539.52 498.39 521.53 498.38 521.53 467.24 503.55 467.23 503.55 436.09 485.57 436.09 485.56 436.08 485.56 404.94 467.58 373.79 485.56 342.64 503.55 373.79 521.53 404.94 539.51 404.94 539.52 436.08 557.5 436.09 557.5 467.24 575.48 467.24 575.49 498.39 593.47 529.54 611.45 560.69 629.44 591.84 647.42 622.99 665.4 654.14 647.42 685.29 629.44 654.14 611.45 622.99 593.47"/><polygon class="cls-2" points="529.54 899.21 529.54 899.2 529.53 899.2 498.39 881.22 498.38 881.22 467.24 863.24 467.23 863.24 436.09 881.22 436.08 881.22 404.94 899.2 404.94 899.21 436.08 917.19 436.09 917.19 467.23 935.17 467.24 935.17 498.38 953.15 498.39 953.15 498.39 953.16 529.53 971.14 529.54 971.14 560.68 989.12 560.69 989.12 560.69 953.16 560.69 953.15 560.69 917.19 560.68 917.19 529.54 899.21"/><polygon class="cls-2" points="311.5 413.63 280.35 395.65 249.2 413.63 218.05 431.61 249.2 449.6 280.35 467.58 311.5 449.6 342.64 431.61 311.5 413.63"/><path class="cls-2" d="M501.6,973l-31.14-18h0l-31.14-18v0l-31.14,18v0h0L377,973l31.14,18h0v0l31.14,18v0l31.15,18h0l31.15,18,31.15,18v-36h0V991l-31.15-18Zm-62.3,0h0v0Zm31.15,18h0v0Z" transform="translate(-314.71 -271.65)"/><polygon class="cls-2" points="155.75 287.75 186.9 305.73 218.05 323.71 218.05 287.75 218.05 251.78 218.05 215.8 218.05 179.84 186.9 197.82 155.75 215.8 124.6 233.8 93.45 251.78 124.6 269.75 155.75 287.75"/><polygon class="cls-2" points="93.45 323.71 124.6 305.73 93.45 287.75 62.3 269.75 31.15 287.75 0 305.73 31.15 323.71 62.3 341.7 93.45 323.71"/><polygon class="cls-3" points="1121.38 341.7 1121.38 305.73 1121.38 269.75 1090.23 287.75 1059.08 305.73 1027.93 323.71 1027.93 287.75 1059.08 269.75 1090.23 251.78 1059.08 233.8 1059.08 233.78 1027.93 215.8 1027.93 215.79 1027.93 179.83 1059.07 197.81 1059.08 197.81 1059.08 197.82 1090.23 215.8 1121.38 233.78 1121.38 197.82 1121.38 161.85 1121.37 161.85 1090.23 143.87 1090.23 143.86 1090.22 143.86 1059.08 125.88 1059.07 125.88 1027.93 107.9 996.78 89.92 996.78 89.91 965.63 71.93 965.63 107.89 965.63 107.9 965.63 143.86 965.63 143.87 965.63 179.83 965.63 215.8 965.63 251.76 965.63 251.78 965.63 287.73 965.63 287.75 965.63 323.71 965.63 323.72 965.63 359.68 965.63 395.64 965.63 395.65 965.63 431.61 996.78 413.63 1027.93 395.65 1059.08 377.67 1059.08 377.66 1090.23 359.68 1121.38 341.7"/><path class="cls-3" d="M1654.14,595.36l-31.15,18V793.18l-31.15,18-31.15,18v107.9h0v36h0v36h0l-31.15,18h0l-31.15,18-31.15,18v-36h0V919.07h0V811.17h0V703.26l-31.15,18-31.15,18v71.93h0V919.06h0V1027h0v107.89h0v107.89h0v143.86h0v143.87l31.14-18h0l31.15-18V1134.89h0l31.15-18,31.15,18,31.15,18,31.15,18,31.15,18v215.8l31.15-18,31.15-18v-215.8l-31.15-18-31.15-18-31.15-18-31.15-18,31.15-18,31.15-18V901.09h0v-36l31.15-18,31.15-18V577.38ZM1591.84,991v0h0Zm0-36v0Z" transform="translate(-314.71 -271.65)"/><path class="cls-3" d="M1280.35,811.16h0l-31.14,18h0l-31.15,18h0l-31.15,18-31.15,18-31.15,18-31.15,18-31.15,18V1224.8h0v503.54l31.15-18,31.15-18,31.15-18,31.15-18,31.15-18h0l31.15-18,31.15-18,31.14-18h0l31.15-18v-36h0v-36l-31.15,18-31.14,18h0l-31.15,18-31.15,18-31.15,18h0l-31.15,18-31.15,18V1296.74h0v-71.92h0v-36h0v-36h0V973l31.15-18,31.15-18,31.15-18,31.15-18h0l31.15-18,31.14-18h0l31.15-18v-36h0v-36l-31.15,18Zm-186.9,431.63h0Z" transform="translate(-314.71 -271.65)"/><path class="cls-3" d="M1062.31,721.25l31.14-18h0l31.14-18h0l31.14-18v36h0v71.92h0l31.14-18h0l31.14-18v-36h0v-36h0V595.37h0V415.52h0V307.62h0l-31.15-18-31.15-18v107.9l-31.15-18-31.15-18-31.15-18-31.15-18-31.15-18-31.15,18-31.15,18-31.15,18-31.15,18-31.15,18V271.65l-31.15,18-31.15,18h0l-31.15,18-31.15,18-31.14,18h0l-31.15,18-31.14,18h0l-31.14,18h0l-31.14,18h0v71.93l31.15-18,31.15-18h0l31.14-18v36h0V595.36h0v71.92h0l31.15,18,31.14,18v-36h0V595.37h0V415.52h0l31.15-18,31.15-18v36h0V595.36h0v71.92h0v36h0v36l31.14,18h0l31.14,18h0V703.27h0v-36l31.14,18h0l31.14,18h0l31.14,18h0l31.15,18,31.15,18,31.15-18,31.15-18Zm-93.46-54-31.15-18-31.15-18v0l-31.15-18-31.15-18V451.48l31.15-18,31.15-18,31.15-18,31.15-18,31.15-18,31.15,18,31.15,18,31.15,18,31.15,18,31.15,18V595.36l-31.15,18-31.15,18v0l-31.15,18-31.15,18-31.15,18Zm0,36h0Zm62.31,0h0Z" transform="translate(-314.71 -271.65)"/><polygon class="cls-3" points="685.29 233.78 654.14 251.76 685.29 269.75 716.44 251.76 685.29 233.78"/><path class="cls-3" d="M875.4,901.09l-31.15-18-31.15-18-31.15-18h0l-31.15-18h0l-31.14-18h0l-31.14-18-31.15-18v36h0v323.71h0v107.89h0v36h0v71.92h0v36h0v71.94h0v71.92h0v36l31.15,18h0l31.14,18v-36h0v-36h0V1386.66h0v-36h0v-71.92h0v-36l31.14,18h0l31.14,18h0l31.14,18h0l31.14,18h0l31.15,18v359.68l31.15,18,31.15,18V1224.81h0V937.05l-31.15-18Zm0,107.91v143.86h0v36h0v36h0v36h0l-31.14-18h0l-31.14-18h0l-31.14-18h0l-31.14-18h0l-31.14-18h0v-36h0V883.11h0l31.15,18h0l31.15,18,31.15,18,31.15,18,31.15,18Zm31.15,233.79h0Z" transform="translate(-314.71 -271.65)"/><path class="cls-3" d="M532.76,703.26v107.9h0V919.06h0V1027h0v36l-31.15-18-31.15-18h0l-31.15-18h0l-31.14-18v0L377,973v-36h0v-36h0V613.35l-31.15-18-31.15-18v323.7h0v467.58l31.15,18,31.15,18V1045h0v0l31.15,18,31.15,18,31.15,18,31.15,18,31.15,18h0v359.68l31.15,18h0l31.14,18V1386.66h0V1242.79h0V1134.89h0V1027h0V919.07h0V811.17h0V739.23l-31.15-18ZM345.86,955v0h0Zm0,36v0ZM377,1009v0Z" transform="translate(-314.71 -271.65)"/></svg>