<?xml version="1.0" encoding="UTF-8"?>
<svg width="1282px" height="1446px" viewBox="0 0 1282 1446" version="1.1" xmlns="http://www.w3.org/2000/svg" xmlns:xlink="http://www.w3.org/1999/xlink">
    <!-- Generator: Sketch 41 (35326) - http://www.bohemiancoding.com/sketch -->
    <title>Group</title>
    <desc>Created with Sketch.</desc>
    <defs></defs>
    <g id="Page-1" stroke="none" stroke-width="1" fill="none" fill-rule="evenodd">
        <g id="hack-init-logo-最终稿_复制">
            <g id="Group">
                <g transform="translate(58.000000, 252.000000)" id="Shape" fill="#EA5717">
                    <polygon points="1194.4 101.2 1165.3 84.4 1136.2 101.2 1107 118 1136.2 134.8 1165.3 151.6 1194.4 134.8 1223.5 118"></polygon>
                    <polygon points="1107 286.1 1077.9 302.9 1048.8 319.7 1077.9 336.5 1107 353.3 1136.2 336.5 1165.3 319.7 1136.2 302.9"></polygon>
                    <polygon points="1077.9 504.6 1077.9 504.6 1048.8 487.8 1048.8 487.8 1019.7 504.6 1019.7 538.2 1019.7 538.2 1019.7 571.9 1048.8 555.1 1077.9 538.2 1077.9 538.2 1107 521.4 1107 521.4"></polygon>
                    <polygon points="990.6 218.9 961.5 202.1 932.4 218.9 903.2 235.7 932.4 252.5 961.5 269.3 990.6 252.5 1019.7 235.7"></polygon>
                    <polygon points="845 269.3 815.9 286.1 815.9 286.1 815.9 286.1 786.8 302.9 786.8 302.9 757.7 319.7 757.7 319.7 728.6 336.5 699.5 353.3 670.3 370.2 641.2 387 612.1 403.8 583 420.6 612.1 437.4 641.2 454.2 670.3 437.4 699.5 420.6 728.6 403.8 757.7 387 786.8 370.2 786.8 370.1 815.9 353.3 815.9 353.3 845 336.5 845 336.5 874.1 319.7 903.2 302.9 874.1 286.1"></polygon>
                    <polygon points="845 941.6 815.9 958.4 815.9 958.5 786.8 975.3 757.7 992.1 728.6 1008.9 728.6 1008.9 699.5 1025.7 699.5 1059.3 699.5 1092.9 728.6 1076.1 757.7 1059.3 757.7 1059.3 786.8 1042.5 815.9 1025.7 845 1008.9 845 1008.9 874.1 992.1 903.2 975.3 874.1 958.5"></polygon>
                    <polygon points="524.8 454.2 524.8 487.8 524.8 521.4 524.8 555 524.8 588.6 524.8 622.2 524.8 655.8 524.8 689.4 524.8 723 524.8 723 524.8 756.6 524.8 790.2 524.8 823.8 524.8 857.4 524.8 857.4 524.8 891 524.8 924.6 524.8 958.2 524.8 991.8 524.8 1025.4 524.8 1059 524.8 1092.6 524.8 1126.2 524.8 1159.8 524.8 1193.4 553.9 1176.6 583 1159.8 583 1126.2 583 1092.6 583 1059 583 1025.4 583 991.8 583 958.2 583 924.6 583 891 583 857.4 583 824 583 790.4 583 756.8 583 723.2 583 689.6 583 656 583 622.4 583 588.8 583 555 583 521.4 583 487.8 583 454.2 583 420.6 553.9 437.4"></polygon>
                    <polygon points="350.1 756.7 350.1 756.7 321 739.9 321 773.6 321 773.6 321 807.2 321 840.8 321 840.8 321 874.4 321 874.4 321 908 321 908 321 941.6 321 975.3 321 1008.9 321 1008.9 321 1042.5 321 1042.5 321 1076.1 350.1 1059.3 379.2 1042.5 379.2 1008.9 379.2 1008.9 379.2 975.3 379.2 941.6 379.2 908 379.2 908 379.2 874.4 379.2 840.8 379.2 840.8 379.2 807.2 379.2 773.6 379.2 773.6 379.2 773.6"></polygon>
                    <polygon points="350.1 420.6 321 403.8 321 403.8 321 437.4 321 471 321 471 321 504.6 321 504.6 321 538.2 321 571.8 321 571.9 321 605.5 321 639.1 321 639.1 321 672.7 350.1 655.9 350.1 655.9 379.2 639.1 379.2 639.1 379.2 639.1 379.2 605.5 379.2 605.5 379.2 571.9 379.2 538.2 379.2 504.6 379.2 504.6 379.2 471 379.2 471 379.2 437.4"></polygon>
                    <polygon points="204.5 269.3 204.5 302.9 204.5 336.5 204.5 336.5 204.5 370.1 204.5 403.8 204.5 437.4 204.5 437.4 204.5 471 204.5 471 204.5 504.6 204.5 504.6 204.5 538.2 204.5 538.2 204.5 571.9 204.5 605.5 204.5 639.1 204.5 639.1 204.5 672.7 204.5 706.3 204.5 739.9 204.5 739.9 204.5 773.6 204.5 807.2 204.5 840.8 204.5 874.4 204.5 874.4 204.5 908 204.5 941.6 204.5 975.3 204.5 1008.9 204.5 1008.9 204.5 1008.9 233.6 992.1 233.6 992.1 233.6 992.1 262.8 975.3 262.8 941.7 262.8 941.6 262.8 908 262.8 874.4 262.8 874.4 262.8 840.8 262.8 840.8 262.8 807.2 262.8 773.6 262.8 773.6 262.8 739.9 262.8 739.9 262.8 706.3 262.8 672.7 262.8 639.1 262.8 639.1 262.8 605.5 262.8 571.9 262.8 538.2 262.8 504.6 262.8 504.6 262.8 471 262.8 471 262.8 437.4 262.8 403.8 262.8 370.1 262.8 336.5 262.8 336.5 262.8 302.9 262.8 269.3 262.8 235.7 262.8 235.7 233.6 252.5"></polygon>
                    <polygon points="88.1 34 59 50.8 29.8 67.6 59 84.4 88.1 101.2 117.2 118 146.3 134.8 146.3 101.2 146.3 67.6 146.3 34 146.3 0.4 117.2 17.2"></polygon>
                    <polygon points="0.7 151.6 0.7 185.3 0.7 218.9 0.7 252.5 0.7 286.1 0.7 319.7 0.7 353.3 0.7 386.9 0.7 420.6 0.7 420.6 0.7 454.2 0.7 454.2 0.7 487.8 29.8 471 29.8 471 58.9 454.2 59 454.2 59 420.6 59 386.9 59 353.3 59 319.7 59 286.1 59 252.5 59 218.9 59 185.3 59 151.6 59 118 29.8 134.8"></polygon>
                    <polygon points="0.7 555.1 0.7 588.7 0.7 622.3 0.7 655.9 0.7 689.5 0.7 723.1 0.7 756.7 0.7 790.4 0.7 824 0.7 857.6 0.7 891.2 29.8 874.4 59 857.6 59 824 59 790.4 59 756.7 59 723.1 59 689.5 59 655.9 59 622.3 59 588.7 29.8 571.9"></polygon>
                </g>
                <g transform="translate(0.000000, 252.000000)" id="Shape" fill="#736C9D">
                    <polygon points="1194.2 134.8 1165 118 1165 151.6 1165 185.3 1165 218.9 1165 252.5 1165 286.1 1194.2 302.9 1223.3 319.7 1223.3 286.1 1223.3 252.5 1223.3 218.9 1223.3 185.3 1223.3 151.6"></polygon>
                    <polygon points="1165 655.9 1165 689.5 1165 723.1 1165 756.7 1165 790.4 1165 824 1165 857.6 1194.2 874.4 1223.3 891.2 1223.3 857.6 1223.3 824 1223.3 790.4 1223.3 756.7 1223.3 723.1 1223.3 689.5 1194.2 672.7"></polygon>
                    <polygon points="1165 487.8 1165 487.8 1165 454.2 1165 454.2 1165 420.6 1165 387 1165 353.4 1135.9 336.6 1106.8 319.8 1106.8 353.4 1106.8 387 1106.8 387 1106.8 420.6 1106.8 454.2 1106.8 487.8 1106.8 487.8 1135.9 504.6 1135.9 504.6 1165 521.4"></polygon>
                    <polygon points="1135.9 101.2 1165 84.4 1194.2 67.6 1165 50.8 1135.9 34 1106.8 17.2 1077.7 0.4 1077.7 34 1077.7 67.6 1077.7 101.2 1077.7 134.8 1106.8 118"></polygon>
                    <polygon points="961.2 235.7 961.2 235.7 961.2 269.3 961.2 302.9 961.2 336.5 961.2 336.5 961.2 370.1 961.2 403.8 961.2 437.4 961.2 471 961.2 471 961.2 504.6 961.2 504.6 961.2 538.2 961.2 571.9 961.2 605.5 961.2 639.1 961.2 639.1 961.2 672.7 961.2 706.3 961.2 739.9 961.2 739.9 961.2 773.6 961.2 773.6 961.2 807.2 961.2 840.8 961.2 840.8 961.2 874.4 961.2 874.4 961.2 908 961.2 941.6 961.2 941.7 961.2 975.3 990.4 992.1 990.4 992.1 990.4 992.1 1019.5 1008.9 1019.5 1008.9 1019.5 1008.9 1019.5 975.3 1019.5 941.6 1019.5 908 1019.5 874.4 1019.5 874.4 1019.5 840.8 1019.5 807.2 1019.5 773.6 1019.5 739.9 1019.5 739.9 1019.5 706.3 1019.5 672.7 1019.5 639.1 1019.5 639.1 1019.5 605.5 1019.5 571.9 1019.5 538.2 1019.5 538.2 1019.5 504.6 1019.5 504.6 1019.5 471 1019.5 471 1019.5 437.4 1019.5 437.4 1019.5 403.8 1019.5 370.1 1019.5 336.5 1019.5 336.5 1019.5 302.9 1019.5 269.3 990.4 252.5"></polygon>
                    <polygon points="641 420.6 641 454.2 641 487.8 641 521.4 641 555 641 588.6 641 622.2 641 655.8 641 689.4 641 723 641 756.6 641 790.2 641 823.8 641 857.4 641 891 641 924.6 641 958.2 641 991.8 641 1025.4 641 1059 641 1092.6 641 1126.2 641 1159.8 670.1 1176.6 699.2 1193.4 699.2 1159.8 699.2 1126.2 699.2 1092.6 699.2 1059 699.2 1025.4 699.2 991.8 699.2 958.2 699.2 924.6 699.2 891 699.2 857.4 699.2 857.4 699.2 824 699.2 790.4 699.2 756.8 699.2 723.2 699.2 723.2 699.2 689.6 699.2 656 699.2 622.4 699.2 588.8 699.2 555 699.2 521.4 699.2 487.8 699.2 454.2 670.1 437.4"></polygon>
                    <polygon points="582.8 387 553.7 370.2 524.5 353.3 495.4 336.5 466.3 319.7 466.3 319.7 437.2 302.9 437.2 302.9 408.1 286.1 408.1 286.1 408.1 286.1 379 269.3 349.9 286.1 320.8 302.9 349.9 319.7 379 336.5 379 336.5 408.1 353.3 408.1 353.3 437.2 370.1 437.2 370.2 466.3 387 495.4 403.8 524.5 420.6 553.7 437.4 582.8 454.2 611.9 437.4 641 420.6 611.9 403.8"></polygon>
                    <polygon points="495.4 672.7 495.4 672.7 495.4 672.7 466.3 655.9 466.3 655.9 437.2 639.1 437.2 639.1 408.1 655.9 408.1 655.9 379 672.7 379 672.7 408.1 689.5 408.1 689.5 437.2 706.3 437.2 706.3 466.3 723.1 466.3 723.1 466.3 723.1 495.4 739.9 495.4 739.9 524.5 756.7 524.5 756.7 524.5 723.1 524.5 723.1 524.5 689.5 524.5 689.5"></polygon>
                    <polygon points="291.6 218.9 262.5 202.1 233.4 218.9 204.3 235.7 233.4 252.5 262.5 269.3 291.6 252.5 320.8 235.7"></polygon>
                    <polygon points="175.2 487.8 146.1 471 146.1 471 117 454.2 117 454.2 87.9 471 87.9 471 87.9 471 58.8 487.8 87.9 504.6 87.9 504.6 87.9 504.6 117 521.4 117 521.4 117 521.4 146.1 538.2 146.1 538.2 175.2 555 204.3 571.8 204.3 538.2 204.3 538.2 204.3 504.6"></polygon>
                    <polygon points="87.8 134.8 117 118 87.8 101.2 58.7 84.4 29.6 101.2 0.5 118 29.6 134.8 58.7 151.6"></polygon>
                </g>
                <g id="Shape" fill="#31004A">
                    <polygon points="1252.4 386.8 1223.3 403.6 1223.3 437.2 1223.3 470.8 1223.3 504.4 1223.3 538 1223.3 571.6 1194.2 588.4 1165.1 605.2 1165.1 638.8 1165.1 672.4 1165.1 706 1165.1 706 1165.1 706 1165.1 739.6 1165.1 739.6 1165.1 739.6 1165.1 773.2 1165.1 773.2 1165.1 773.2 1136 790 1136 790 1106.9 806.8 1077.8 823.6 1077.8 790 1077.8 790 1077.8 756.4 1077.8 723 1077.8 689.4 1077.8 689.4 1077.8 655.8 1077.8 622.2 1077.8 588.6 1077.8 588.6 1077.8 555 1077.8 521.4 1077.8 487.8 1048.7 504.6 1019.6 521.4 1019.6 555 1019.6 588.6 1019.6 588.6 1019.6 622.2 1019.6 655.8 1019.6 689.4 1019.6 689.4 1019.6 723 1019.6 723 1019.6 756.6 1019.6 756.6 1019.6 790.2 1019.6 790.2 1019.6 823.8 1019.6 857.4 1019.6 891 1019.6 891 1019.6 924.6 1019.6 958.2 1019.6 991.8 1019.6 991.8 1019.6 1025.4 1019.6 1059 1019.6 1092.6 1019.6 1126.2 1019.6 1126.2 1019.6 1159.8 1019.6 1193.4 1019.6 1227 1019.6 1260.6 1048.7 1243.8 1048.7 1243.8 1077.8 1227 1077.8 1227 1077.8 1193.4 1077.8 1160 1077.8 1126.4 1077.8 1092.8 1077.8 1059.2 1077.8 1025.6 1077.8 992 1077.8 958.4 1077.8 924.8 1077.8 891.2 1077.8 891.2 1106.9 874.4 1136 891.2 1165.1 908 1194.2 924.8 1223.3 941.6 1223.3 975.2 1223.3 1008.8 1223.3 1042.4 1223.3 1076 1223.3 1109.6 1223.3 1143.2 1252.4 1126.4 1281.5 1109.6 1281.5 1076 1281.5 1042.4 1281.5 1008.8 1281.5 975.2 1281.5 941.6 1281.5 908 1252.4 891.2 1223.3 874.4 1194.2 857.6 1165.1 840.8 1194.2 824 1223.3 807.2 1223.3 807.2 1223.3 773.6 1223.3 773.6 1223.3 740 1223.3 706.4 1223.3 706.4 1223.3 672.8 1223.3 672.8 1223.3 639.2 1252.4 622.4 1281.5 605.6 1281.5 572 1281.5 538.4 1281.5 504.8 1281.5 471.2 1281.5 437.6 1281.5 404 1281.5 370"></polygon>
                    <polygon points="1048.6 403.6 1019.5 386.8 990.4 370 990.4 336.4 990.4 302.8 1019.5 319.6 1048.6 336.4 1048.6 302.8 1048.6 302.8 1048.6 269.2 1019.5 252.4 1019.5 252.4 990.4 235.6 990.4 235.5 990.4 201.9 990.4 201.9 961.2 185.1 932.1 168.3 932.1 201.9 932.1 235.5 932.1 235.6 932.1 269.2 932.1 269.2 932.1 302.8 932.1 336.4 932.1 336.4 932.1 370 932.1 403.6 932.1 403.6 932.1 437.3 932.1 437.3 932.1 470.9 961.2 454.1 990.4 437.3 990.4 437.3 1019.5 420.4"></polygon>
                    <polygon points="903 588.5 903 588.5 873.9 605.3 873.9 605.3 844.8 622.1 844.8 622.1 815.7 638.9 786.6 655.7 757.5 672.5 728.4 689.3 699.3 706.1 699.3 739.7 699.3 773.3 699.3 806.9 699.3 840.5 699.3 874.1 699.3 907.7 699.3 941.3 699.3 974.9 699.3 974.9 699.3 1008.5 699.3 1042.1 699.3 1075.7 699.3 1109.3 699.3 1109.3 699.3 1142.9 699.3 1176.5 699.3 1210.1 699.3 1243.7 699.3 1277.3 699.3 1310.9 699.3 1344.5 699.3 1378.1 699.3 1411.7 699.3 1445.3 728.4 1428.5 757.5 1411.7 786.6 1394.9 815.7 1378.1 844.8 1361.3 844.8 1361.3 873.9 1344.5 903 1327.7 932.1 1310.9 932.1 1310.9 961.2 1294.1 961.2 1260.5 961.2 1260.5 961.2 1226.9 932.1 1243.7 903 1260.5 903 1260.5 873.9 1277.3 844.8 1294.1 815.7 1310.9 815.7 1310.9 786.6 1327.7 757.5 1344.5 757.5 1310.9 757.5 1277.3 757.5 1243.7 757.5 1210.1 757.5 1210.1 757.5 1176.5 757.5 1142.9 757.5 1109.3 757.5 1109.3 757.5 1076 757.5 1042.4 757.5 1042.4 757.5 1008.8 757.5 975.2 757.5 975.2 757.5 941.6 757.5 941.6 757.5 908 757.5 908 757.5 874.4 757.5 840.8 757.5 807 757.5 773.4 757.5 739.8 786.6 723 815.7 706.2 844.8 689.4 873.9 672.6 873.9 672.6 903 655.8 932.1 639 932.1 639 961.2 622.2 961.2 588.6 961.2 588.6 961.2 555 932.1 571.8"></polygon>
                    <polygon points="728.3 588.5 757.4 571.7 757.4 571.7 786.5 554.9 786.5 554.9 815.6 538.1 815.6 538.1 815.6 538.1 844.7 521.3 844.7 521.3 873.8 504.5 873.8 504.5 902.9 487.7 902.9 487.7 902.9 454.1 902.9 454.1 902.9 420.5 873.8 437.3 873.8 437.3 873.8 437.3 844.7 454.1 844.7 454.1 815.6 470.9 815.6 470.9 815.6 437.3 815.6 437.3 815.6 403.7 815.6 403.7 815.6 370 815.6 370 815.6 336.4 815.6 302.8 815.6 269.2 815.6 269.2 815.6 235.6 815.6 202 815.6 168.4 844.7 185.2 873.8 202 902.9 218.8 902.9 185.2 902.9 185.2 902.9 151.6 873.8 134.8 844.7 118 844.7 118 815.6 101.2 786.5 84.4 757.4 67.6 728.3 50.8 699.2 34 670.1 17.2 641 0.4 641 34 641 67.6 670.1 84.4 699.2 101.2 728.3 118 757.4 134.8 757.4 168.4 757.4 202 757.4 235.6 757.4 269.2 757.4 269.2 757.4 302.8 757.4 336.4 757.4 370 757.4 370 757.4 403.6 757.4 437.2 757.4 437.2 757.4 470.8 757.4 504.4 757.4 504.4 728.3 521.2 728.3 521.2 699.2 538 670.1 554.8 641 571.6 641 605.2 641 639 670.1 622.2 699.2 605.4"></polygon>
                    <polygon points="553.7 50.7 553.7 84.3 553.7 117.9 553.7 151.5 553.7 185.1 553.7 218.7 553.7 252.4 553.7 286 524.5 269.2 524.5 269.2 495.4 252.4 495.4 218.7 495.4 218.7 495.4 185.1 466.3 168.3 466.3 168.3 437.2 151.5 437.2 117.9 408.1 134.7 379 151.5 379 185.1 379 185.1 379 218.7 379 218.7 379 252.4 379 286 379 319.6 379 319.6 379 353.2 379 353.2 379 386.8 379 386.8 379 420.4 379 454.1 379 454.1 379 487.7 379 487.7 408.1 504.5 408.1 504.5 437.2 521.3 437.2 521.3 437.2 487.7 437.2 487.7 437.2 454.1 437.2 454.1 437.2 420.4 437.2 386.8 437.2 386.8 437.2 353.2 437.2 319.6 466.3 336.4 495.4 353.2 495.4 386.8 495.4 420.4 524.5 437.3 524.5 437.3 524.5 437.3 553.6 454.1 553.7 454.1 553.7 487.7 553.7 487.7 553.7 521.3 553.7 554.9 553.7 588.5 582.8 605.3 611.9 622.2 611.9 588.5 611.9 554.9 611.9 521.3 611.9 487.7 611.9 487.7 611.9 487.7 611.9 454.1 611.9 420.4 611.9 420.4 611.9 386.8 611.9 353.2 611.9 319.6 611.9 286 611.9 252.4 611.9 218.7 611.9 185.1 611.9 151.5 611.9 117.9 611.9 84.3 611.9 50.7 611.9 17 582.8 33.9"></polygon>
                    <path d="M524.5,672.6 L495.4,655.8 L466.3,639 L437.2,622.2 L437.2,622.2 L408.1,605.4 L408.1,605.4 L379,588.5 L379,588.5 L349.9,571.7 L320.8,554.9 L320.8,588.5 L320.8,588.5 L320.8,622.1 L320.8,655.7 L320.8,689.3 L320.8,722.9 L320.8,722.9 L320.8,756.5 L320.8,756.5 L320.8,790.1 L320.8,823.7 L320.8,857.3 L320.8,890.9 L320.8,890.9 L320.8,924.5 L320.8,958.1 L320.8,991.7 L320.8,991.7 L320.8,1025.3 L320.8,1025.3 L320.8,1058.9 L320.8,1092.5 L320.8,1092.5 L320.8,1126.1 L320.8,1126.1 L320.8,1159.7 L320.8,1193.3 L320.8,1193.3 L320.8,1226.9 L320.8,1260.5 L320.8,1260.5 L320.8,1294.1 L349.9,1310.9 L349.9,1310.9 L379,1327.7 L379,1294.1 L379,1294.1 L379,1260.5 L379,1260.5 L379,1226.9 L379,1193.3 L379,1160 L379,1160 L379,1126.4 L379,1126.4 L379,1092.8 L379,1092.8 L379,1059.2 L379,1025.6 L379,1025.6 L379,992 L408.1,1008.8 L408.1,1008.8 L437.2,1025.6 L437.2,1025.6 L437.2,1025.6 L466.3,1042.4 L466.3,1042.4 L495.4,1059.2 L495.4,1059.2 L524.5,1076 L524.5,1109.6 L524.5,1109.6 L524.5,1143.2 L524.5,1176.8 L524.5,1210.4 L524.5,1210.4 L524.5,1244 L524.5,1277.6 L524.5,1311.2 L524.5,1344.8 L524.5,1378.4 L524.5,1412 L553.6,1428.8 L582.7,1445.6 L582.7,1412 L582.7,1378.4 L582.7,1344.8 L582.7,1311.2 L582.7,1277.6 L582.7,1244 L582.7,1210.4 L582.7,1176.8 L582.7,1143.2 L582.7,1109.6 L582.7,1109.6 L582.7,1076 L582.7,1042.4 L582.7,1008.8 L582.7,975.2 L582.7,975.2 L582.7,941.6 L582.7,908 L582.7,874.4 L582.7,840.8 L582.7,807 L582.7,773.4 L582.7,739.8 L582.7,706.2 L553.6,689.4 L524.5,672.6 Z M524.5,773.4 L524.5,807 L524.5,840.6 L524.5,874.2 L524.5,907.8 L524.5,907.8 L524.5,941.4 L524.5,941.4 L524.5,975 L524.5,975 L524.5,1008.6 L524.5,1008.6 L495.4,991.8 L495.4,991.8 L466.3,975 L466.3,975 L466.3,975 L437.2,958.2 L437.2,958.2 L408.1,941.4 L408.1,941.4 L379,924.6 L379,924.6 L379,891 L379,891 L379,857.4 L379,823.8 L379,823.8 L379,790.2 L379,756.6 L379,756.6 L379,723 L379,723 L379,689.4 L379,655.8 L379,655.8 L408.1,672.6 L408.1,672.6 L437.2,689.4 L466.3,706.2 L495.4,723 L524.5,739.8 L524.5,773.4 Z"></path>
                    <polygon points="320.8 454.1 349.9 470.9 349.9 437.3 349.9 437.3 349.9 403.6 320.8 386.8 320.8 386.8 320.8 353.2 320.8 353.2 320.8 319.6 320.8 286 320.8 286 320.8 252.4 349.9 235.6 349.9 235.5 349.9 201.9 349.9 168.3 320.8 185.1 291.6 201.9 291.6 201.9 262.5 218.7 262.5 218.7 262.5 218.7 233.4 235.6 233.4 235.6 233.4 269.2 233.4 302.8 262.5 286 262.5 319.6 262.5 353.2 262.5 353.2 233.4 336.4 233.4 370 233.4 403.6 262.5 420.4 291.6 437.3 291.6 437.3"></polygon>
                    <polygon points="204.3 487.7 204.3 521.3 204.3 554.9 204.3 588.5 204.3 588.5 204.3 622.1 204.3 655.7 204.3 689.3 204.3 689.3 204.3 722.9 204.3 756.5 204.3 790.1 204.3 790.1 204.3 823.7 175.2 806.9 146.1 790.1 146.1 790.1 117 773.3 117 773.3 87.9 756.5 87.9 756.5 58.8 739.7 58.8 706.1 58.8 706.1 58.8 706.1 58.8 672.5 58.8 672.5 58.8 672.5 58.8 638.9 58.8 605.3 58.8 571.7 58.8 538.1 58.8 504.5 58.8 470.9 58.8 437.3 58.8 403.7 29.7 386.9 0.5 370 0.5 403.6 0.5 437.2 0.5 470.8 0.5 504.4 0.5 538 0.5 571.6 0.5 605.2 0.5 639 0.5 672.6 0.5 672.6 0.5 706.2 0.5 706.2 0.5 739.8 0.5 773.4 0.5 773.4 0.5 807 0.5 807 0.5 840.6 0.5 874.2 0.5 907.8 0.5 941.4 0.5 975 0.5 1008.6 0.5 1042.2 0.5 1075.8 0.5 1109.4 29.6 1126.2 58.7 1143 58.7 1109.4 58.7 1076 58.7 1042.4 58.7 1008.8 58.7 975.2 58.7 941.6 58.7 908 58.7 874.4 58.7 840.8 58.7 807.2 58.7 807.2 58.7 807.2 58.7 807.2 87.8 824 116.9 840.8 146 857.6 175.1 874.4 204.2 891.2 204.2 891.2 204.2 924.8 204.2 958.4 204.2 992 204.2 1025.6 204.2 1059.2 204.2 1092.8 204.2 1126.4 204.2 1160 204.2 1193.6 204.2 1227.2 204.2 1227.2 233.3 1244 233.3 1244 262.4 1260.8 262.4 1227.2 262.4 1193.6 262.4 1160 262.4 1126.4 262.4 1126.4 262.4 1092.8 262.4 1059.2 262.4 1025.6 262.4 992 262.4 992 262.4 958.4 262.4 924.8 262.4 891.2 262.4 891.2 262.4 857.6 262.4 824 262.4 790.4 262.4 790.4 262.4 756.8 262.4 756.8 262.4 723 262.4 723 262.4 689.4 262.4 689.4 262.4 655.8 262.4 622.2 262.4 588.6 262.4 588.6 262.4 555 262.4 521.4 233.3 504.6"></polygon>
                </g>
            </g>
        </g>
    </g>
</svg>
