<?xml version="1.0" encoding="utf-8"?>
<!-- Generator: Adobe Illustrator 22.0.0, SVG Export Plug-In . SVG Version: 6.00 Build 0)  -->
<svg version="1.1" id="图层_1" xmlns="http://www.w3.org/2000/svg" xmlns:xlink="http://www.w3.org/1999/xlink" x="0px" y="0px"
	 viewBox="0 0 2000 2000" style="enable-background:new 0 0 2000 2000;" xml:space="preserve">
<style type="text/css">
	.st0{fill:#FFFFFF;}
</style>
<g>
	<polygon class="st0" points="1358.4,761.2 1358.4,761.2 1386,745.3 1413.6,729.4 1441.2,713.5 1468.7,697.5 1496.3,681.6
		1523.9,665.7 1496.3,649.8 1468.7,633.9 1441.2,617.9 1413.6,602 1386,586.1 1386,586.1 1358.4,570.2 1330.9,554.3 1330.9,554.3
		1330.9,554.3 1303.3,538.3 1303.3,570.2 1303.3,570.2 1303.3,602 1303.3,633.9 1303.3,633.9 1303.3,665.7 1303.3,665.7
		1303.3,697.5 1303.3,729.4 1303.3,729.4 1303.3,761.2 1303.3,761.2 1303.3,793.1 1330.9,777.1 	"/>
	<polygon class="st0" points="1248.2,506.5 1220.6,490.6 1220.6,522.4 1220.6,554.3 1220.6,554.3 1220.6,586.1 1220.6,617.9
		1193,633.9 1165.4,649.8 1165.4,649.8 1137.9,665.7 1110.3,681.6 1082.7,697.5 1082.7,665.7 1082.7,633.9 1082.7,602 1082.7,602
		1082.7,570.2 1082.7,538.3 1082.7,506.5 1082.7,474.7 1082.7,442.8 1082.7,411 1055.1,395.1 1027.6,379.2 1027.6,411 1027.6,442.8
		1027.6,474.7 1027.6,506.5 1027.6,538.3 1027.6,570.2 1027.6,602 1027.6,633.9 1027.6,665.7 1027.6,697.5 1027.6,697.5
		1027.6,729.4 1027.6,761.2 1027.6,761.2 1027.6,761.2 1027.6,793.1 1027.6,824.9 1027.6,856.7 1027.6,888.6 1027.6,920.4
		1027.6,952.2 1055.1,936.3 1082.7,920.4 1082.7,888.6 1082.7,856.7 1082.7,824.9 1082.7,793.1 1082.7,761.2 1082.7,761.2
		1082.7,761.2 1110.3,745.3 1110.3,745.3 1137.9,729.4 1137.9,729.4 1165.4,713.5 1165.4,713.5 1165.4,713.5 1193,697.5 1193,697.5
		1220.6,681.6 1220.6,713.5 1220.6,713.5 1220.6,745.3 1220.6,777.1 1220.6,777.1 1220.6,809 1220.6,809 1220.6,840.8 1220.6,840.8
		1248.2,824.9 1275.7,809 1275.7,809 1275.7,777.1 1275.7,777.1 1275.7,745.3 1275.7,713.5 1275.7,713.5 1275.7,681.6 1275.7,681.6
		1275.7,649.8 1275.7,618 1275.7,617.9 1275.7,586.1 1275.7,554.3 1275.7,554.3 1275.7,522.4 1248.2,506.5 	"/>
	<polygon class="st0" points="669.1,554.3 669.1,554.3 641.6,570.2 614,586.1 614,586.1 586.4,602 558.8,617.9 531.3,633.9
		503.7,649.8 476.1,665.7 503.7,681.6 531.3,697.5 558.8,713.5 586.4,729.4 614,745.3 641.6,761.2 641.6,761.2 669.1,777.1
		696.7,793.1 696.7,761.2 696.7,761.2 696.7,729.4 696.7,729.4 696.7,697.5 696.7,665.7 696.7,665.7 696.7,633.9 696.7,633.9
		696.7,602 696.7,570.2 696.7,570.2 696.7,538.3 669.1,554.3 	"/>
	<polygon class="st0" points="917.3,411 889.7,426.9 862.1,442.8 834.6,458.8 834.6,458.8 807,474.7 779.4,490.6 751.8,506.5
		751.8,506.5 724.3,522.4 724.3,554.3 724.3,554.3 724.3,586.1 751.8,602 751.8,602 779.4,617.9 807,633.9 834.6,649.8 834.6,649.8
		862.1,665.7 889.7,681.6 917.3,697.5 917.3,697.5 917.3,729.4 917.3,729.4 917.3,761.2 917.3,761.2 917.3,793.1 917.3,824.9
		917.3,856.7 889.7,840.8 889.7,840.8 862.1,824.9 862.1,824.9 834.6,809 834.6,809 834.6,809 807,793.1 807,793.1 779.4,777.1
		779.4,777.1 751.8,761.2 751.8,761.2 724.3,745.3 724.3,777.1 724.3,777.1 724.3,809 724.3,809 751.8,824.9 779.4,840.8
		779.4,840.8 807,856.7 807,856.7 807,856.7 834.6,872.6 862.1,888.6 862.1,888.6 889.7,904.5 917.3,920.4 944.9,936.3 972.4,952.2
		972.4,920.4 972.4,888.6 972.4,856.7 972.4,824.9 972.4,793.1 972.4,761.2 972.4,761.2 972.4,761.2 972.4,729.4 972.4,697.5
		972.4,697.5 972.4,665.7 944.9,649.8 944.9,649.8 917.3,633.9 889.7,617.9 862.1,602 862.1,602 834.6,586.1 807,570.2 779.4,554.3
		779.4,554.3 807,538.3 834.6,522.4 862.1,506.5 862.1,506.5 889.7,490.6 917.3,474.7 944.9,458.8 972.4,442.8 972.4,411
		972.4,379.2 944.9,395.1 	"/>
	<path class="st0" d="M1523.9,697.5l-27.6,15.9v31.8v31.8V809v31.8l-27.6,15.9l-27.6,15.9v31.8v0v31.8v31.8v31.8l0,0l0,0l-27.6,15.9
		l-27.6,15.9l-27.6,15.9v-31.8v0v-31.8v0v-31.8v0v-31.8v-31.8v-31.8v0v-31.8v-31.8l-27.6,15.9v0l-27.6,15.9v31.8v0v31.8v31.8v31.8
		v31.8v0v31.8v0v31.8v31.8v31.8v31.8v0v31.8v31.8v31.8v0v31.8v0v31.8v31.8v0v31.8v0v31.8v31.8v0v31.8l27.6-15.9h0v0l27.6-15.9V1398
		v-31.8v0v-31.8v-31.8v-31.8v-31.8v0v-31.8v-31.8v-31.8v0v-31.8l27.6-15.9l27.6,15.9l27.6,15.9l27.6,15.9l27.6,15.9v31.8v31.8v31.8
		v31.8v31.8v31.8l27.6-15.9l27.6-15.9v-31.8v-31.8v-31.8V1191v-31.8v-31.8l-27.6-15.9l-27.6-15.9l-27.6-15.9l-27.6-15.9l27.6-15.9v0
		l27.6-15.9v0V1000v0v-31.8v0v-31.8v-31.8l27.6-15.9l27.6-15.9v-31.8V809v-31.8v-31.8v-31.8v-31.8L1523.9,697.5z M1468.7,1015.9
		L1468.7,1015.9L1468.7,1015.9L1468.7,1015.9z M1468.7,984.1L1468.7,984.1L1468.7,984.1L1468.7,984.1z"/>
	<polygon class="st0" points="1248.2,856.7 1220.6,872.6 1220.6,872.6 1193,888.6 1193,888.6 1165.4,904.5 1137.9,920.4
		1110.3,936.3 1082.7,952.2 1055.1,968.2 1027.6,984.1 1027.6,1015.9 1027.6,1047.8 1027.6,1079.6 1027.6,1111.4 1027.6,1143.3
		1027.6,1175.1 1027.6,1206.9 1027.6,1238.8 1027.6,1238.8 1027.6,1238.8 1027.6,1270.6 1027.6,1302.5 1027.6,1302.5 1027.6,1334.3
		1027.6,1366.1 1027.6,1398 1027.6,1429.8 1027.6,1461.7 1027.6,1493.5 1027.6,1525.3 1027.6,1557.2 1027.6,1589 1027.6,1620.8
		1055.1,1604.9 1082.7,1589 1110.3,1573.1 1137.9,1557.2 1165.4,1541.2 1165.4,1541.2 1193,1525.3 1220.6,1509.4 1248.2,1493.5
		1248.2,1493.5 1275.7,1477.6 1275.7,1445.7 1275.7,1445.7 1275.7,1413.9 1248.2,1429.8 1220.6,1445.7 1220.6,1445.7 1193,1461.7
		1165.4,1477.6 1137.9,1493.5 1137.9,1493.5 1110.3,1509.4 1082.7,1525.3 1082.7,1493.5 1082.7,1461.7 1082.7,1429.8 1082.7,1398
		1082.7,1398 1082.7,1366.1 1082.7,1334.3 1082.7,1302.5 1082.7,1302.5 1082.7,1270.6 1082.7,1270.6 1082.7,1238.8 1082.7,1238.8
		1082.7,1206.9 1082.7,1175.1 1082.7,1143.3 1082.7,1111.4 1082.7,1079.6 1082.7,1047.8 1082.7,1015.9 1110.3,1000 1137.9,984.1
		1165.4,968.2 1193,952.2 1220.6,936.3 1220.6,936.3 1248.2,920.4 1275.7,904.5 1275.7,904.5 1275.7,872.6 1275.7,840.8
		1248.2,856.7 	"/>
	<path class="st0" d="M669.1,809l-27.6-15.9v31.8v31.8v0v31.8v31.8v31.8v0v31.8v0v31.8v0v31.8l-27.6-15.9l-27.6-15.9l-27.6-15.9l0,0
		l-27.6-15.9h0l-27.6-15.9l0,0h0v-31.8v-31.8v-31.8v-31.8V809v-31.8v-31.8v-31.8l-27.6-15.9l-27.6-15.9v31.8v31.8v31.8V809v31.8
		v31.8v31.8v31.8v0v31.8v0v31.8v31.8v0v31.8v0v31.8v31.8v31.8v31.8v31.8v31.8v31.8v31.8l27.6,15.9l27.6,15.9v-31.8v-31.8v-31.8
		v-31.8V1191v-31.8v-31.8v-31.8v-31.8v-31.8h0l0,0v0l27.6,15.9v0l27.6,15.9l27.6,15.9l27.6,15.9v0l27.6,15.9v31.8v0v31.8v31.8v31.8
		v0v31.8v31.8v31.8v31.8v0v31.8v31.8l27.6,15.9v0h0l27.6,15.9v-31.8v0V1398v-31.8v0v-31.8v0v-31.8v-31.8v0v-31.8v0v-31.8v-31.8
		v-31.8v0v-31.8v-31.8v-31.8v-31.8v0v-31.8v0v-31.8v-31.8v-31.8v-31.8v0v-31.8L669.1,809L669.1,809z M476.1,984.1L476.1,984.1
		L476.1,984.1L476.1,984.1z M476.1,1015.9L476.1,1015.9L476.1,1015.9L476.1,1015.9z M503.7,1000L503.7,1000L503.7,1000L503.7,1000z
		 M531.3,1015.9L531.3,1015.9L531.3,1015.9L531.3,1015.9z"/>
	<path class="st0" d="M917.3,952.2l-27.6-15.9l-27.6-15.9l-27.6-15.9L807,888.6v0l-27.6-15.9h0l-27.6-15.9v0l-27.6-15.9v31.8v31.8v0
		v31.8v0v31.8v0v31.8v31.8v0v31.8v0v31.8v0v31.8v31.8v31.8v0v31.8v0v31.8v31.8v0v31.8v0v31.8v31.8v0v31.8v31.8v0v31.8l27.6,15.9v0
		l27.6,15.9v-31.8v-31.8v0v-31.8v-31.8v-31.8v-31.8v0v-31.8v0v-31.8v-31.8v0V1191l27.6,15.9h0l27.6,15.9h0v0l27.6,15.9h0l27.6,15.9
		h0l27.6,15.9h0v0v31.8v0v31.8v31.8v31.8v0v31.8v31.8v31.8v31.8v31.8v31.8l27.6,15.9l27.6,15.9V1589v-31.8v-31.8v-31.8v-31.8v-31.8
		V1398v-31.8v-31.8v-31.8v0v-31.8v-31.8h0l0,0v-31.8v-31.8v-31.8v-31.8v-31.8v-31.8v-31.8v-31.8l-27.6-15.9L917.3,952.2z
		 M917.3,1047.8v31.8v31.8v31.8v31.8v31.8h0l-27.6-15.9h0l-27.6-15.9v0h0l-27.6-15.9h0l-27.6-15.9h0l-27.6-15.9v0v-31.8v-31.8v0
		v-31.8v0V1000v-31.8v0v-31.8l27.6,15.9l27.6,15.9l27.6,15.9l27.6,15.9l27.6,15.9V1047.8z M917.3,1238.8L917.3,1238.8L917.3,1238.8
		L917.3,1238.8z"/>
</g>
</svg>
