<?xml version="1.0" encoding="utf-8"?>
<!-- Generator: Adobe Illustrator 22.0.1, SVG Export Plug-In . SVG Version: 6.00 Build 0)  -->
<svg version="1.1" id="Ebene_1" xmlns="http://www.w3.org/2000/svg" xmlns:xlink="http://www.w3.org/1999/xlink" x="0px" y="0px"
	 viewBox="0 0 1000 1000" style="enable-background:new 0 0 1000 1000;" xml:space="preserve">
<style type="text/css">
	.st0{fill:#9AC016;}
</style>
<g id="XMLID_282_">
	<path id="XMLID_255_" class="st0" d="M418.3,343.5c6.4-0.1,12.8-0.3,19.1-0.3l12.7-12.7l-44-43.6L363,329.8l12.8,13.1L418.3,343.5z
		"/>
	<path id="XMLID_254_" class="st0" d="M642.2,345.9l4.3-0.1c0.1-2,0.3-3.9,0.4-5.9l-7.2-7.2l-13.8,13.8
		C631.2,346.1,636.7,346,642.2,345.9z"/>
	<path id="XMLID_253_" class="st0" d="M647.8,324.5l-5.4,5.2l4.7,4.7C647.4,331,647.5,327.7,647.8,324.5z"/>
	<path id="XMLID_252_" class="st0" d="M453.3,236.7c-0.1,0-0.3,0-0.5,0.1l0.1,0.1L453.3,236.7z"/>
	<path id="XMLID_251_" class="st0" d="M725,331.5c8.2,10.7,15.6,22.1,22.2,33.8l13.8-0.8c-10.3-18.6-22.5-36-36.4-51.9
		c0,2.1,0.1,4.3,0.1,6.4L725,331.5z"/>
	<path id="XMLID_250_" class="st0" d="M505.9,223.3c53.2,0,103.1,15.2,145.4,41.5c0.1-2.3,0.3-4.7,0.4-7c0.1-1.5,0.1-2.9,0.3-4.4
		c-42.5-24.6-91.9-38.7-144.6-38.7c-120.2,0-223.4,73.4-267,177.9l11.4-0.7C293.6,293,391.8,223.3,505.9,223.3z"/>
	<path id="XMLID_249_" class="st0" d="M449.8,237.4c-22.7,4.8-44.5,12.7-64.7,23l21,20.7L449.8,237.4z"/>
	<path id="XMLID_248_" class="st0" d="M380.5,374.7L380.5,374.7c-0.1,0-0.3,0-0.4,0c-1.7,0-3.6,0.3-5.8,0.9
		c-0.4,0.1-0.8,0.3-1.3,0.4c-1.5,0.5-2.9,1.1-4.1,1.9c-0.3,0.1-0.5,0.3-0.8,0.4c-2.4,1.6-4.3,4-5.9,7.6l35.4-1.9
		C392.2,376.5,385.4,374.7,380.5,374.7z"/>
	<path id="XMLID_247_" class="st0" d="M473.1,343.7c5.9,0.3,11.8,0.4,17.7,0.7c11.4,0.4,22.9,0.8,34.5,1.2l16.7-16.7l-42.1-42.1
		l-43.7,43.7l13.2,13.1C470.6,343.6,471.8,343.7,473.1,343.7z"/>
	<polygon id="XMLID_246_" class="st0" points="588.9,282.1 546.7,239.9 502.7,283.9 544.8,326.1 	"/>
	<path id="XMLID_245_" class="st0" d="M565.9,347.1c4.3,0,8.8,0.1,13.4,0.1c13.4,0,27-0.3,40.5-0.7l16.9-16.9l-44.8-44.8l-44,44
		L565.9,347.1z"/>
	<path id="XMLID_244_" class="st0" d="M545.2,235.6l1.5,1.5l1.5-1.5l43.6,43.5l23.5-23.5l2.9,2.9l-23.5,23.5l44.8,44.7l8.6-8.6
		c0.1-3.3,0.4-6.7,0.5-9.9c0.7-11.2,1.3-22.7,2-34.2c-41.7-27-91.5-42.7-144.9-42.7c-17.4,0-34.4,1.6-51,4.8l44.7,44.7L545.2,235.6z
		"/>
	<path id="XMLID_243_" class="st0" d="M724,366.7l14-0.8c-4-7.1-8.4-13.9-13.1-20.6l-0.3,14.4C724.8,362.2,724.6,364.6,724,366.7z"
		/>
	<path id="XMLID_242_" class="st0" d="M316.1,387.5c-5.6-9.1-13-11.1-18.1-11.1c-3.1,0-6.2,0.7-9.1,1.9c-1.1,0.4-2.1,0.7-3.2,0.7
		c-1.7,0-3.5-0.5-4.8-1.6c-2.3-1.7-3.6-4.5-3.2-7.5c0.3-1.9,0.8-4.1,1.7-7.1c0-0.1,0.1-0.4,0.1-0.5c-0.1-1.9,0.3-3.9,1.3-5.5l0,0
		c1.3-1.9,3.7-5.6,4.8-7.4c0.7-1.1,1.5-1.9,2.5-2.5l5.1-3.3c1.3-0.8,2.8-1.3,4.4-1.3c0,0,0,0,0.1,0l46.5,0.5l12.8-12.7l-29.4-30.2
		c-28.4,25.4-51.4,56.7-66.9,91.9l55.9-2.9C316.5,388.1,316.3,387.9,316.1,387.5z"/>
	<polygon id="XMLID_241_" class="st0" points="360.1,332.7 350.2,342.8 370,342.9 	"/>
	<path id="XMLID_240_" class="st0" d="M453,333.3l-9.9,9.9c6.8,0,13.5,0.1,20.1,0.3L453,333.3z"/>
	<path id="XMLID_238_" class="st0" d="M465.2,779.6l6.6-6.6c-5.2-0.7-10.4-1.5-15.5-2.4L465.2,779.6z"/>
	<polygon id="XMLID_237_" class="st0" points="496.9,283.9 453,240.1 409,283.9 453,327.5 	"/>
	<path id="XMLID_236_" class="st0" d="M560,346.9l-15.2-15.1l-14,14c4.1,0.1,8.3,0.4,12.6,0.5C548.7,346.7,554.3,346.8,560,346.9z"
		/>
	<path id="XMLID_235_" class="st0" d="M559,779.4l12-12c-6.6,1.6-13.2,2.9-20.1,4L559,779.4z"/>
	<path id="XMLID_234_" class="st0" d="M338.1,304.3l22.1,22.7l42.9-42.9l-21.8-21.7l0.3-0.3c-18.3,9.6-35.3,21.3-50.8,34.8
		L338.1,304.3L338.1,304.3z"/>
	<path id="XMLID_233_" class="st0" d="M286.8,680.7L287,667c-1.7-2.3-3.5-4.5-5.2-7l-17.3,0.9c6.8,10.6,14.3,20.6,22.5,30.2
		l-0.3-9.4L286.8,680.7L286.8,680.7z"/>
	<path id="XMLID_232_" class="st0" d="M462.9,373c-4.3,0-8.6,1.3-12.3,3.6c-1.7,1.1-3.3,2.8-4.7,4.9l31.8-1.7
		C472.8,374.3,467.2,373,462.9,373z"/>
	
		<rect id="XMLID_231_" x="349.1" y="299.8" transform="matrix(0.7165 -0.6976 0.6976 0.7165 -121.2005 333.0845)" class="st0" width="0.1" height="31.7"/>
	<polygon id="XMLID_230_" class="st0" points="375.9,343 363,329.8 363,329.9 375.7,343 	"/>
	<path id="XMLID_229_" class="st0" d="M910.7,526.7l88.5-89.2l-88.4-6.6l-34.4,192.7c0.4,2.3-0.3,4.7-1.9,6.6l-38.5,44.5l96.3,7.1
		L910.7,526.7z"/>
	<polygon id="XMLID_228_" class="st0" points="830.6,630.6 826.5,661 853.9,629.4 	"/>
	<path id="XMLID_227_" class="st0" d="M94.2,670.1h-1.1l34.6-194.2l-94.8,6l42.7,150.9L0,733.2l131.2-8.3l-35.6-50.6
		C94.7,673,94.3,671.6,94.2,670.1z"/>
	<polygon id="XMLID_226_" class="st0" points="140.8,710.1 140.8,667.5 112,669.1 	"/>
	<path id="XMLID_225_" class="st0" d="M660.2,219.9c0.9-6,1.9-12,2.5-18.1c2.5-19.5,5.1-38.9,7.4-54.6c0.5-3.1,2.4-4.9,4.8-4.9
		c0.8,0,3.6,0.3,4.5,4.1l6.6,40l4.7-29.4c0.3-2,2-3.3,3.9-3.5c0,0,0,0,0.1,0c1.9,0,3.6,1.3,4,3.2c1.7,8.4,3.5,16.9,5.2,25.3l13,63.5
		c1.2,5.6,2.1,15,2.3,20.7c0.3,14,0.7,28.1,0.9,42c1.5,1.5,2.8,3.1,4.1,4.7c-0.4-15.5-0.7-31.2-1.1-46.8c-0.1-6.2-1.2-15.5-2.4-21.5
		c-2.4-11.5-4.7-23-7-34.5l-5.9-29c-1.6-8-3.3-16.2-4.9-24.2l-0.3-1.1c-0.8-3.7-4.1-6.6-8-6.6h-0.1c-3.9,0.1-7.2,2.9-7.9,6.8
		l-0.7,4.5l-2.4-14.7c0-0.3-0.1-0.4-0.1-0.7c-1.3-5.4-5.4-7.2-8.6-7.2l0,0l0,0c-4.4,0-8,3.3-8.8,8.3c-2.3,16.1-4.9,35.4-7.4,54.8
		c-0.8,6-1.7,12-2.5,17.9c-1.7,11.1-3.3,22.6-4.3,34.2c1.3,0.8,2.7,1.5,3.9,2.3C656.7,243.5,658.5,231.5,660.2,219.9z"/>
	<path id="XMLID_224_" class="st0" d="M564.2,351.1l-4.1-4.1c-5.8-0.1-11.4-0.3-16.7-0.5c-4.1-0.1-8.3-0.4-12.6-0.5l-3.9,3.9
		c5.5,0.3,10.8,0.4,16.2,0.7C549.9,350.8,556.8,350.9,564.2,351.1z"/>
	<path id="XMLID_223_" class="st0" d="M648.1,318.3l4.4-4.3c0.1-1.7,0.3-3.6,0.3-5.4c0.7-10.6,1.3-21.3,1.9-31.8
		c-1.3-0.9-2.7-1.7-3.9-2.5c-0.7,11.5-1.3,23-2,34.2C648.5,311.6,648.3,315,648.1,318.3z"/>
	<path id="XMLID_222_" class="st0" d="M441,347.2c9.1,0,18.1,0.1,26.6,0.4l-4.3-4.1c-6.6-0.1-13.2-0.3-20.1-0.3l-4.1,4
		C439.8,347.3,440.3,347.2,441,347.2z"/>
	<path id="XMLID_221_" class="st0" d="M719.9,367l4.3-0.3c0.4-2.1,0.7-4.4,0.7-6.8l0.3-14.4c-1.3-1.9-2.7-3.7-4-5.5l-0.3,20.1
		C720.7,362.4,720.4,364.7,719.9,367z"/>
	<path id="XMLID_220_" class="st0" d="M720.5,320.3l0.1,6c1.5,1.7,2.8,3.5,4.1,5.4l-0.3-12.3c0-2.1-0.1-4.3-0.1-6.4
		c-1.3-1.6-2.8-3.1-4.1-4.7C720.4,312.3,720.5,316.3,720.5,320.3z"/>
	<path id="XMLID_219_" class="st0" d="M651.3,264.8c1.3,0.8,2.7,1.6,3.9,2.5c0.1-3.1,0.4-6.2,0.5-9.2c0-0.8,0.1-1.6,0.1-2.4
		c-1.3-0.8-2.7-1.6-3.9-2.3c-0.1,1.5-0.3,2.9-0.3,4.4C651.5,260.1,651.4,262.5,651.3,264.8z"/>
	<path id="XMLID_218_" class="st0" d="M321.3,387.9c-0.7-0.8-1.2-1.6-1.6-2.3c-6.7-10.8-15.4-13.1-21.7-13.1
		c-3.6,0-7.4,0.8-10.7,2.3c-0.5,0.3-1.1,0.3-1.6,0.3c-0.8,0-1.7-0.3-2.4-0.8c-1.2-0.9-1.7-2.3-1.6-3.7c0.1-1.6,0.9-4.1,1.6-6.4
		c0.1-0.5,0.3-0.9,0.4-1.5c-0.3-1.2-0.1-2.4,0.5-3.5l0,0c0.4-0.7,3.6-5.2,4.9-7.6c0.3-0.5,0.8-0.9,1.2-1.3l5.1-3.3
		c0.7-0.4,1.5-0.7,2.3-0.7c0,0,19.4,0.3,42.5,0.4l4-4l-46.5-0.5c0,0,0,0-0.1,0c-1.6,0-3.1,0.4-4.4,1.3l-5.1,3.3
		c-1.1,0.7-1.9,1.6-2.5,2.5c-1.1,1.9-3.6,5.5-4.8,7.4l0,0c-1.1,1.6-1.6,3.6-1.3,5.5c0,0.1-0.1,0.4-0.1,0.5c-0.9,2.9-1.5,5.2-1.7,7.1
		c-0.4,2.9,0.9,5.8,3.2,7.5c1.5,1.1,3.2,1.6,4.8,1.6c1.1,0,2.1-0.3,3.2-0.7c2.9-1.2,6.2-1.9,9.1-1.9c5.1,0,12.4,1.9,18.1,11.1
		c0.3,0.3,0.4,0.7,0.7,1.1l4.8-0.3L321.3,387.9z"/>
	<path id="XMLID_217_" class="st0" d="M549.5,372.7c-4.7,0.4-8.4,1.7-11.4,4l31.7-1.7c-4.1-1.7-9-2.5-14.4-2.5
		C553.6,372.3,551.6,372.5,549.5,372.7z"/>
	<path id="XMLID_216_" class="st0" d="M402.2,383.8c-6.6-10.8-15.4-13.1-21.7-13.1c0,0-0.4,0-0.5,0c-2,0-4.3,0.4-6.8,1.1
		c-0.4,0.1-0.9,0.3-1.5,0.4c-1.7,0.5-3.5,1.3-4.9,2.3c-0.3,0.1-0.4,0.3-0.7,0.4c-3.5,2.1-6,5.6-8.2,10.6c-0.1,0.3-0.3,0.7-0.4,0.9
		l4.5-0.3c1.6-3.5,3.6-6,5.9-7.6c0.3-0.1,0.5-0.3,0.8-0.4c1.3-0.8,2.7-1.3,4.1-1.9c0.5-0.1,0.9-0.3,1.3-0.4c2.1-0.5,4-0.9,5.8-0.9
		c0.1,0,0.3,0,0.4,0l0,0c4.8,0,11.6,1.7,17,9.4l4.7-0.3C402.2,383.8,402.2,383.8,402.2,383.8z"/>
	<path id="XMLID_215_" class="st0" d="M651,338.2c0.4-6,0.7-12.2,1.1-18.2l-4.4,4.3c-0.1,3.3-0.4,6.7-0.5,10L651,338.2z"/>
	<path id="XMLID_214_" class="st0" d="M646.4,345.7l-4.3,0.1c-5.4,0.1-10.8,0.4-16.3,0.5l-4.1,4.1c7-0.1,13.8-0.4,20.6-0.7l8.2-0.3
		c0.1-2,0.3-4,0.4-5.9l-3.9-3.9C646.7,341.7,646.6,343.7,646.4,345.7z"/>
	<path id="XMLID_213_" class="st0" d="M418.4,347.5c4.8-0.1,9.9-0.1,15-0.3l4.1-4.1c-6.4,0-12.8,0.1-19.1,0.3l-42.4-0.4l4,4.1
		C401.3,347.3,418.4,347.5,418.4,347.5z"/>
	<path id="XMLID_212_" class="st0" d="M579.3,347.2c-4.7,0-9.1,0-13.4-0.1l4.1,4.1c3.1,0,6.2,0,9.2,0c12,0,24.2-0.3,36.2-0.5
		l4.1-4.1C606.3,346.8,592.8,347.2,579.3,347.2z"/>
	<path id="XMLID_211_" class="st0" d="M462.9,369c-4.9,0-10.2,1.5-14.4,4.3c-2.9,1.9-5.4,4.7-7.2,8.7l4.8-0.3
		c1.3-2.1,2.9-3.9,4.7-4.9c3.6-2.3,8-3.6,12.3-3.6c4.3,0,9.9,1.3,15,6.8l5.1-0.3C476.4,370.9,468.7,369,462.9,369z"/>
	<path id="XMLID_210_" class="st0" d="M490.8,348.4c10,0.4,20.3,0.7,30.6,1.1l3.9-3.9c-11.6-0.4-23.1-0.8-34.5-1.2
		c-5.9-0.1-11.8-0.4-17.7-0.7c-1.3,0-2.5-0.1-3.9-0.1l4.3,4.3L490.8,348.4z"/>
	<path id="XMLID_209_" class="st0" d="M370,342.9l-19.8-0.3l-4,4c9.2,0.1,18.7,0.1,27.8,0.3L370,342.9z"/>
	<path id="XMLID_208_" class="st0" d="M379.9,347.1l-4-4.1h-0.3l4,4.1C379.7,347.1,379.9,347.1,379.9,347.1z"/>
	<path id="XMLID_207_" class="st0" d="M370.1,342.9h-0.3l4,4.1c0.1,0,0.1,0,0.3,0L370.1,342.9z"/>
	<path id="XMLID_206_" class="st0" d="M379.7,347.1l-4-4.1h-5.5l4,4.1C376,347.1,377.9,347.1,379.7,347.1z"/>
	<path id="XMLID_205_" class="st0" d="M473,347.7h0.5l-4.3-4.3c-2,0-4-0.1-6-0.1l4.3,4.1C469.4,347.7,471.2,347.7,473,347.7z"/>
	<path id="XMLID_204_" class="st0" d="M564.2,351.1c1.9,0,3.9,0,5.9,0.1l-4.1-4.1c-2,0-4-0.1-5.9-0.1L564.2,351.1z"/>
	<path id="XMLID_203_" class="st0" d="M646.8,339.8l3.9,3.9c0.1-1.9,0.3-3.6,0.3-5.5l-3.9-3.9C647,336.2,647,338,646.8,339.8z"/>
	<path id="XMLID_202_" class="st0" d="M439.1,347.3l4.1-4c-0.8,0-1.5,0-2.3,0c-1.2,0-2.4,0-3.5,0l-4.1,4.1
		C435.2,347.3,437.3,347.3,439.1,347.3z"/>
	<path id="XMLID_201_" class="st0" d="M346,346.8l4-4h-5.8l-4,4C342.3,346.7,344.2,346.8,346,346.8z"/>
	<path id="XMLID_200_" class="st0" d="M526.9,349.7l3.9-3.9c-1.9-0.1-3.7-0.1-5.6-0.3l-3.9,3.9C523.1,349.6,525,349.6,526.9,349.7z"
		/>
	<path id="XMLID_199_" class="st0" d="M652.1,320c0.1-2,0.3-4.1,0.4-6.2l-4.4,4.3c-0.1,2-0.3,4.1-0.4,6.2L652.1,320z"/>
	<path id="XMLID_198_" class="st0" d="M619.8,346.5l-4.1,4.1c2,0,4-0.1,5.9-0.1l4.1-4.1C623.8,346.4,621.8,346.4,619.8,346.5z"/>
	<path id="XMLID_197_" class="st0" d="M666.9,202.2c2.3-17.3,4.8-37.2,7.4-54.6c0.1-0.7,0.4-1.5,0.8-1.5c0.3,0,0.4,0.3,0.7,1.1
		c3.3,20.9,6.8,41.5,10.2,62.2c0.4,0,0.3,0,0.8,0c2.8-17.3,5.5-34.6,8.3-51.9c1.7,8.4,3.5,16.9,5.2,25.1c4.3,21.1,8.6,42.4,13,63.5
		c1.1,5.5,2.1,14.4,2.3,20.1c0.3,12.4,0.5,25,0.8,37.5c1.5,1.5,2.8,2.9,4.1,4.4c-0.3-14-0.7-28.1-0.9-42c-0.1-5.8-1.2-15.1-2.3-20.7
		l-13-63.5c-1.7-8.4-3.5-16.9-5.2-25.3c-0.4-1.9-2-3.2-4-3.2c0,0,0,0-0.1,0c-2,0-3.6,1.5-3.9,3.5l-4.7,29.4l-6.6-40
		c-0.9-3.9-3.7-4.1-4.5-4.1c-2.4,0-4.3,1.9-4.8,4.9c-2.3,15.6-4.8,35-7.4,54.6c-0.8,6-1.7,12-2.5,18.1c-1.7,11.6-3.6,23.8-4.4,35.8
		c1.3,0.8,2.7,1.6,3.9,2.4C660.9,239.3,664.5,220.8,666.9,202.2z"/>
	<path id="XMLID_196_" class="st0" d="M287.6,361.4L287.6,361.4L287.6,361.4C287.6,361.4,287.6,361.5,287.6,361.4
		C287.6,361.5,287.6,361.5,287.6,361.4z"/>
	<path id="XMLID_195_" class="st0" d="M405.6,381.6c-6.7-10.8-16.1-15-25-15c-0.1,0-0.4,0-0.5,0l0,0c-2.7,0-5.4,0.5-7.9,1.2
		c-0.5,0.1-1.1,0.4-1.6,0.5c-2,0.7-3.9,1.6-5.8,2.5c-0.3,0.1-0.5,0.3-0.8,0.4c-4.5,2.8-7.5,7.2-9.8,12.3c-0.1,0.5-0.4,0.8-0.7,1.1
		v0.1l-0.7,1.6l4.7-0.3c0.1-0.3,0.4-0.7,0.4-0.9c2.1-4.9,4.8-8.4,8.2-10.6c0.3-0.1,0.5-0.3,0.7-0.4c1.6-0.9,3.2-1.6,4.9-2.3
		c0.5-0.1,0.9-0.3,1.5-0.4c2.5-0.7,4.8-1.1,6.8-1.1c0.1,0,0.5,0,0.5,0c6.2,0,15,2.3,21.7,13.1c0,0,0,0.1,0.1,0.1l4.8-0.3
		C406.5,383,406.1,382.4,405.6,381.6z"/>
	<path id="XMLID_194_" class="st0" d="M570.1,351.2l4.1,4.1c1.7,0,3.5,0,5.1,0c10.7,0,21.4-0.1,32.1-0.4l4.1-4.1
		c-12,0.3-24.2,0.5-36.2,0.5C576.1,351.2,573,351.2,570.1,351.2z"/>
	<path id="XMLID_193_" class="st0" d="M418.4,347.5c0,0-17.1-0.1-38.5-0.4l4,4.1l34.4,0.4c3.6-0.1,7.2-0.1,10.8-0.1l4.1-4.1
		C428.2,347.3,423.2,347.5,418.4,347.5z"/>
	<path id="XMLID_192_" class="st0" d="M462.9,364.9c-6,0-11.9,1.9-16.6,4.8c-4.5,2.8-7.5,7.2-9.6,12.3l4.5-0.3c2-4,4.3-6.8,7.2-8.7
		c4.3-2.7,9.5-4.3,14.4-4.3c5.6,0,13.5,1.9,19.9,10.6l4.8-0.3C481.1,368.9,471.8,364.9,462.9,364.9z"/>
	<path id="XMLID_191_" class="st0" d="M716.5,321.1c1.5,1.7,2.8,3.3,4.1,5.1l-0.1-6c-0.1-4-0.1-8-0.3-12c-1.3-1.5-2.8-2.9-4.1-4.4
		C716.3,309.6,716.4,315.4,716.5,321.1z"/>
	<path id="XMLID_190_" class="st0" d="M490.8,348.4l-17.3-0.5l4.3,4.3c13.2,0.4,26.4,0.9,39.6,1.3l4-3.9
		C511,349.1,500.8,348.8,490.8,348.4z"/>
	<path id="XMLID_189_" class="st0" d="M543.1,350.4c-5.4-0.3-10.8-0.5-16.2-0.7l-3.9,3.9c6.7,0.3,13.4,0.5,19.9,0.8
		c8.4,0.4,17,0.7,25.4,0.7l-4.1-4.1C556.8,350.9,549.9,350.8,543.1,350.4z"/>
	<path id="XMLID_188_" class="st0" d="M650.3,349.6l-8.2,0.3c-6.8,0.3-13.8,0.4-20.6,0.7l-4.1,4.1c11.2-0.3,22.3-0.7,33.6-1.1
		c2.3-0.1,3.3-0.7,3.5-3.5c0-0.9,0.1-1.7,0.1-2.7l-3.9-3.9C650.6,345.6,650.5,347.6,650.3,349.6z"/>
	<path id="XMLID_187_" class="st0" d="M651,338.2l3.9,3.9c0.5-8.8,1.1-17.5,1.6-26.4l-4.4,4.3C651.7,326.1,651.4,332.2,651,338.2z"
		/>
	<path id="XMLID_186_" class="st0" d="M716.9,338.8l-0.3,21.3c0,2.5-0.3,4.9-1.1,7.2l4.3-0.3c0.5-2.3,0.8-4.5,0.8-7l0.3-20.1
		c-1.3-1.9-2.7-3.6-4.1-5.5c0,1.1,0,2.1,0.1,3.2V338.8z"/>
	<path id="XMLID_185_" class="st0" d="M378,351.2l-4-4.1c-9.1-0.1-18.6-0.1-27.8-0.3l-4,4L378,351.2z"/>
	<path id="XMLID_184_" class="st0" d="M652.5,313.9l4.4-4.3c0.7-10,1.2-20.1,1.7-30.2c-1.3-0.9-2.7-1.7-3.9-2.7
		c-0.7,10.6-1.2,21.3-1.9,31.8C652.6,310.3,652.6,312.2,652.5,313.9z"/>
	<path id="XMLID_183_" class="st0" d="M441,347.2c-0.7,0-1.2,0-1.9,0l-4.1,4.1c2,0,3.9,0,5.9,0c10.2,0,20.6,0.1,30.8,0.5l-4.3-4.3
		C458.9,347.3,450.1,347.2,441,347.2z"/>
	<path id="XMLID_182_" class="st0" d="M555.4,368.3c-2,0-4.1,0.1-6.3,0.3c-6.8,0.7-12.7,3.1-17.3,8.4l6.3-0.3
		c3.1-2.3,6.8-3.6,11.4-4c2.1-0.1,4-0.3,5.9-0.3c5.5,0,10.3,0.8,14.4,2.5l7.6-0.4C570.7,369.9,563.2,368.3,555.4,368.3z"/>
	<path id="XMLID_181_" class="st0" d="M324.5,385.3c-0.5-0.7-0.9-1.3-1.5-2.1c-6.7-10.8-16.1-15-25-15c-4.3,0-8.6,0.9-12.4,2.5
		c0.3-2.7,2.9-10,2.4-10c-0.1,0-0.3,0.1-0.4,0.5l0,0l0,0l0,0c0,0,0,0,0-0.1c0.4-0.7,3.6-5.4,5.1-7.8l5.1-3.3l38.5,0.4l4-4
		c-23.1-0.3-42.5-0.4-42.5-0.4c-0.8,0-1.6,0.3-2.3,0.7l-5.1,3.3c-0.5,0.4-0.9,0.8-1.2,1.3c-1.5,2.3-4.5,7-4.9,7.6l0,0
		c-0.7,0.9-0.9,2.3-0.5,3.5c-0.1,0.4-0.3,0.9-0.4,1.5c-0.7,2.4-1.5,4.8-1.6,6.4c-0.1,1.5,0.4,2.9,1.6,3.7c0.7,0.5,1.6,0.8,2.4,0.8
		c0.5,0,1.1-0.1,1.6-0.3c3.5-1.5,7.2-2.3,10.7-2.3c6.2,0,15,2.3,21.7,13.1c0.4,0.7,0.9,1.6,1.6,2.3l0.3,0.4l4.7-0.3L324.5,385.3z"/>
	<path id="XMLID_180_" class="st0" d="M659.8,258.4c0-0.1,0-0.1,0-0.3c-1.3-0.8-2.7-1.6-3.9-2.4c0,0.8-0.1,1.6-0.1,2.4
		c-0.1,3.1-0.4,6.2-0.5,9.2c1.3,0.8,2.7,1.7,3.9,2.5C659.4,266,659.6,262.1,659.8,258.4z"/>
	<path id="XMLID_179_" class="st0" d="M379.7,347.1l4,4.1h0.3l-4-4.1C379.9,347.1,379.7,347.1,379.7,347.1z"/>
	<path id="XMLID_178_" class="st0" d="M374.1,347.1c-0.1,0-0.1,0-0.3,0l4,4.1h0.3L374.1,347.1z"/>
	<path id="XMLID_177_" class="st0" d="M379.7,347.1c-1.9,0-3.6,0-5.5,0l4,4.1h5.5L379.7,347.1z"/>
	<path id="XMLID_176_" class="st0" d="M473,347.7c-1.7,0-3.6-0.1-5.5-0.1l4.3,4.3c0.4,0,0.7,0,1.1,0c1.6,0,3.3,0.1,4.9,0.1l-4.3-4.3
		L473,347.7L473,347.7z"/>
	<path id="XMLID_175_" class="st0" d="M568.3,355.2c2,0,3.9,0,5.9,0l-4.1-4.1c-2,0-3.9,0-5.9-0.1L568.3,355.2z"/>
	<path id="XMLID_174_" class="st0" d="M650.7,343.7l3.9,3.9c0.1-1.9,0.3-3.6,0.3-5.5l-3.9-3.9C650.9,340.1,650.7,341.8,650.7,343.7z
		"/>
	<path id="XMLID_173_" class="st0" d="M433.4,347.3l-4.1,4.1c1.9,0,3.9,0,5.9,0l4.1-4.1C437.3,347.3,435.2,347.3,433.4,347.3z"/>
	<path id="XMLID_172_" class="st0" d="M342,350.8l4-4c-1.9,0-3.9,0-5.8,0l-4,4H342z"/>
	<path id="XMLID_171_" class="st0" d="M521.3,349.5l-4,3.9c1.9,0.1,3.7,0.1,5.6,0.3l3.9-3.9C525,349.6,523.1,349.6,521.3,349.5z"/>
	<path id="XMLID_170_" class="st0" d="M656.5,315.8c0.1-2,0.3-4.1,0.4-6.2l-4.4,4.3c-0.1,2-0.3,4.1-0.4,6.2L656.5,315.8z"/>
	<path id="XMLID_169_" class="st0" d="M615.5,350.7l-4.1,4.1c2,0,4-0.1,5.9-0.1l4.1-4.1C619.6,350.5,617.6,350.7,615.5,350.7z"/>
	<path id="XMLID_168_" class="st0" d="M683.4,722l-6.3-6.6c-0.5,0.4-1.1,0.8-1.6,1.2l6.4,6.7l2.9-2.8l-6.2-6.4
		c-0.5,0.4-1.1,0.8-1.6,1.3L683.4,722z"/>
	<polygon id="XMLID_167_" class="st0" points="641.8,676.6 651.7,686.8 651.8,686.7 642,676.6 	"/>
	<path id="XMLID_166_" class="st0" d="M654.6,689.7l18.2,18.7c0,0,0.1,0,0.1-0.1L654.6,689.7L654.6,689.7z"/>
	<path id="XMLID_165_" class="st0" d="M629.1,758.6l-8.4-8.4c-0.7,0.3-1.3,0.7-2,0.9l9.1,9l2.8-2.9l-7.9-7.9c-0.7,0.3-1.3,0.7-2,0.9
		L629.1,758.6z"/>
	<path id="XMLID_164_" class="st0" d="M545.6,676l11.8,11.6l1.5-1.5l-10.2-10C547.6,676.1,546.7,676,545.6,676z"/>
	<polygon id="XMLID_163_" class="st0" points="561.6,689.1 560.3,690.4 604.3,734.2 605.8,732.7 	"/>
	<path id="XMLID_162_" class="st0" d="M605.8,738.4l6.6,6.6c0.7-0.3,1.3-0.5,2-0.9l-7.1-7.1L605.8,738.4z"/>
	<polygon id="XMLID_161_" class="st0" points="560.3,690.4 558.8,691.9 602.8,735.5 604.3,734.2 	"/>
	<path id="XMLID_160_" class="st0" d="M542.7,676l13.2,13.1l1.5-1.5L545.6,676C544.7,676,543.6,676,542.7,676z"/>
	<path id="XMLID_159_" class="st0" d="M607.3,737l7.1,7.1c0.7-0.3,1.3-0.5,2-0.9l-7.6-7.6L607.3,737z"/>
	<path id="XMLID_158_" class="st0" d="M558.8,782.4L558.8,782.4l-1.5-1.5l0.1-0.1l-9-9c-0.8,0.1-1.7,0.3-2.5,0.4l11.6,11.6
		L558.8,782.4L558.8,782.4L558.8,782.4z"/>
	<path id="XMLID_157_" class="st0" d="M550.9,771.5c-0.8,0.1-1.6,0.3-2.5,0.4l9,9l1.5-1.5L550.9,771.5z"/>
	<path id="XMLID_156_" class="st0" d="M513.6,737.1l27.7,27.6c0.8-0.1,1.7-0.3,2.5-0.4l-28.8-28.6L513.6,737.1z"/>
	<path id="XMLID_155_" class="st0" d="M448.9,672.5l16.7,16.7l1.5-1.5l-15.2-15.1C450.9,672.5,450,672.5,448.9,672.5z"/>
	<path id="XMLID_154_" class="st0" d="M445.9,672.5l18.2,18.2l1.5-1.5l-16.7-16.7C448,672.5,447,672.5,445.9,672.5z"/>
	<polygon id="XMLID_153_" class="st0" points="469.9,690.7 468.6,692 510.7,734.2 512.2,732.7 	"/>
	<polygon id="XMLID_152_" class="st0" points="468.6,692 467.1,693.5 509.2,735.6 510.7,734.2 	"/>
	<path id="XMLID_151_" class="st0" d="M512.2,738.4l26.5,26.5c0.8-0.1,1.7-0.3,2.5-0.3l-27.7-27.6L512.2,738.4z"/>
	<path id="XMLID_150_" class="st0" d="M465.2,779.6l-9-9c-1.2-0.3-2.4-0.4-3.6-0.7l12.4,12.4l0.1-0.1l-1.3-1.3L465.2,779.6z"/>
	<path id="XMLID_149_" class="st0" d="M449,769.2l14.7,14.6l1.5-1.5l-12.4-12.4C451.4,769.7,450.2,769.5,449,769.2z"/>
	<polygon id="XMLID_148_" class="st0" points="373.9,691.2 372.4,692.7 417.2,737.5 418.7,736 	"/>
	<path id="XMLID_147_" class="st0" d="M420.1,740.3l17.9,17.9c1.3,0.4,2.5,0.7,3.9,0.9l-20.3-20.3L420.1,740.3z"/>
	<path id="XMLID_146_" class="st0" d="M364.9,682.4l6,6l1.5-1.5l-7.2-7.2C365,680.7,365,681.5,364.9,682.4z"/>
	<path id="XMLID_145_" class="st0" d="M364.8,685.2l4.7,4.7l1.5-1.5l-6-6C364.9,683.3,364.8,684.3,364.8,685.2z"/>
	<path id="XMLID_144_" class="st0" d="M421.6,739l20.3,20.3c1.2,0.3,2.5,0.7,3.7,0.9l-22.7-22.6L421.6,739z"/>
	<polygon id="XMLID_143_" class="st0" points="375.2,689.9 373.9,691.2 418.7,736 420.1,734.6 	"/>
	<path id="XMLID_142_" class="st0" d="M471.8,773.1l-6.6,6.6l1.3,1.3l-1.3,1.3l0.1,0.1l9.1-9.1C473.5,773.2,472.6,773.1,471.8,773.1
		z"/>
	<path id="XMLID_141_" class="st0" d="M465.2,782.4l1.5,1.5l10.3-10.3c-0.9-0.1-1.7-0.1-2.5-0.3L465.2,782.4z"/>
	<path id="XMLID_140_" class="st0" d="M510.7,737.1L481.8,766c0.9,0.1,1.7,0.1,2.7,0.3l27.7-27.6L510.7,737.1z"/>
	<path id="XMLID_139_" class="st0" d="M570.9,676.4c-0.8,0-1.5,0-2.3,0l-9.9,9.9l1.5,1.5l11.2-11.2
		C571.3,676.4,571.1,676.4,570.9,676.4z"/>
	<path id="XMLID_138_" class="st0" d="M571.5,676.4l-11.2,11.2l1.5,1.5l12.7-12.7C573.4,676.4,572.5,676.4,571.5,676.4z"/>
	<polygon id="XMLID_137_" class="st0" points="513.6,734.2 515,735.6 558.8,691.9 557.4,690.4 	"/>
	<polygon id="XMLID_136_" class="st0" points="512.2,732.7 513.6,734.2 557.4,690.4 555.9,689.1 	"/>
	<path id="XMLID_135_" class="st0" d="M509.2,735.6l-30.1,30c0.9,0.1,1.7,0.1,2.7,0.3l28.9-28.9L509.2,735.6z"/>
	<polygon id="XMLID_134_" class="st0" points="560.3,687.6 558.8,689.1 560.3,690.4 561.6,689.1 	"/>
	<polygon id="XMLID_133_" class="st0" points="555.9,689.1 557.4,690.4 558.8,689.1 557.4,687.6 	"/>
	<polygon id="XMLID_132_" class="st0" points="558.8,686.1 557.4,687.6 558.8,689.1 560.3,687.6 	"/>
	<polygon id="XMLID_131_" class="st0" points="558.8,689.1 557.4,690.4 558.8,691.9 560.3,690.4 	"/>
	
		<rect id="XMLID_130_" x="511.1" y="736.1" transform="matrix(0.7064 -0.7078 0.7078 0.7064 -371.3798 578.851)" class="st0" width="2" height="2"/>
	
		<rect id="XMLID_129_" x="512.5" y="734.7" transform="matrix(0.7064 -0.7078 0.7078 0.7064 -369.9463 579.4794)" class="st0" width="2" height="2"/>
	
		<rect id="XMLID_128_" x="509.5" y="734.6" transform="matrix(0.7078 -0.7064 0.7064 0.7078 -370.4756 575.5881)" class="st0" width="2" height="2"/>
	
		<rect id="XMLID_127_" x="511.2" y="733.2" transform="matrix(0.7064 -0.7078 0.7078 0.7064 -369.3055 578.0868)" class="st0" width="2" height="2"/>
	
		<rect id="XMLID_126_" x="464.2" y="780" transform="matrix(0.7078 -0.7064 0.7064 0.7078 -415.7157 556.7632)" class="st0" width="1.9" height="1.9"/>
	<path id="XMLID_125_" class="st0" d="M560.3,780.8L560.3,780.8l-1.3,1.6l0,0l0,0l-0.1,0.1l1.3,1.3l18.5-18.5
		c-1.3,0.4-2.7,0.7-3.9,1.1L560.3,780.8z"/>
	<path id="XMLID_124_" class="st0" d="M559,779.4l1.5,1.5l14.4-14.4c-1.3,0.3-2.5,0.7-3.9,0.9L559,779.4z"/>
	<polygon id="XMLID_123_" class="st0" points="607.3,734 608.7,735.5 651.7,692.6 650.2,691.1 	"/>
	<path id="XMLID_122_" class="st0" d="M604.3,737l-17.5,17.5c1.5-0.4,2.8-0.9,4.3-1.3l14.7-14.7L604.3,737z"/>
	<path id="XMLID_121_" class="st0" d="M602.8,735.5l-20.3,20.2c1.3-0.4,2.8-0.8,4.1-1.3l17.5-17.5L602.8,735.5z"/>
	<polygon id="XMLID_120_" class="st0" points="653.3,688.1 654.6,689.6 667.4,676.9 664.6,676.8 	"/>
	<polygon id="XMLID_119_" class="st0" points="605.8,732.7 607.3,734 650.2,691.1 648.9,689.7 	"/>
	<polygon id="XMLID_118_" class="st0" points="651.8,686.7 653.3,688.1 664.6,676.8 661.7,676.8 	"/>
	
		<rect id="XMLID_117_" x="652.4" y="686.5" transform="matrix(0.7165 -0.6976 0.6976 0.7165 -294.6511 650.0474)" class="st0" width="0.1" height="2"/>
	
		<rect id="XMLID_116_" x="653.8" y="688.1" transform="matrix(0.7165 -0.6976 0.6976 0.7165 -295.3158 651.4606)" class="st0" width="0.1" height="2"/>
	<polygon id="XMLID_115_" class="st0" points="604.3,734.2 605.8,735.5 607.3,734 605.8,732.7 	"/>
	<polygon id="XMLID_114_" class="st0" points="605.8,735.5 607.3,737 608.7,735.5 607.3,734 	"/>
	<polygon id="XMLID_113_" class="st0" points="604.3,734.2 602.8,735.5 604.3,737 605.8,735.5 	"/>
	<polygon id="XMLID_112_" class="st0" points="604.3,737 605.8,738.4 607.3,737 605.8,735.5 	"/>
	
		<rect id="XMLID_111_" x="558" y="779.8" transform="matrix(0.7064 -0.7078 0.7078 0.7064 -388.5169 624.8575)" class="st0" width="2" height="2"/>
	
		<rect id="XMLID_110_" x="558.8" y="782.2" transform="matrix(0.7079 -0.7063 0.7063 0.7079 -389.3152 623.209)" class="st0" width="0.1" height="0.1"/>
	
		<rect id="XMLID_109_" x="558" y="780.7" transform="matrix(0.7071 -0.7071 0.7071 0.7071 -389.259 623.5876)" class="st0" width="0.1" height="2"/>
	
		<rect id="XMLID_108_" x="558.7" y="781.6" transform="matrix(0.7071 -0.7071 0.7071 0.7071 -388.8148 624.7405)" class="st0" width="2" height="0.1"/>
	<path id="XMLID_107_" class="st0" d="M395.1,762.4l7.4-7.4c-0.7-0.3-1.3-0.5-2-0.8l-6.8,6.8l2.9,2.9l8-8c-0.7-0.3-1.3-0.5-2-0.8
		L395.1,762.4z"/>
	<polygon id="XMLID_106_" class="st0" points="420.1,734.6 421.6,736 465.6,692 464.1,690.7 	"/>
	<path id="XMLID_105_" class="st0" d="M417.2,737.5l-10.4,10.4c0.7,0.3,1.3,0.5,2,0.8l9.9-9.8L417.2,737.5z"/>
	<path id="XMLID_104_" class="st0" d="M483.9,673.8l-15.4,15.4l1.5,1.5l16.7-16.7C485.7,673.8,484.9,673.8,483.9,673.8z"/>
	<path id="XMLID_103_" class="st0" d="M481.1,673.7l-14,14l1.5,1.5l15.4-15.4C483,673.8,482.1,673.7,481.1,673.7z"/>
	<path id="XMLID_102_" class="st0" d="M418.7,739l-9.9,9.8c0.7,0.3,1.3,0.5,2.1,0.8l9.2-9.2L418.7,739z"/>
	<polygon id="XMLID_101_" class="st0" points="421.6,736 422.9,737.5 467.1,693.5 465.6,692 	"/>
	
		<rect id="XMLID_100_" x="464.7" y="689.6" transform="matrix(0.7064 -0.7078 0.7078 0.7064 -352.1114 532.3959)" class="st0" width="2" height="2"/>
	
		<rect id="XMLID_99_" x="466" y="688.2" transform="matrix(0.7078 -0.7064 0.7064 0.7078 -350.3973 531.264)" class="st0" width="2" height="2"/>
	
		<rect id="XMLID_98_" x="466" y="691" transform="matrix(0.7078 -0.7064 0.7064 0.7078 -352.3817 532.1214)" class="st0" width="2" height="2"/>
	
		<rect id="XMLID_97_" x="467.5" y="689.6" transform="matrix(0.7078 -0.7064 0.7064 0.7078 -350.9652 532.7183)" class="st0" width="2" height="2"/>
	
		<rect id="XMLID_96_" x="420.5" y="736.6" transform="matrix(0.7064 -0.7078 0.7078 0.7064 -398.3032 514.8807)" class="st0" width="2" height="2"/>
	
		<rect id="XMLID_95_" x="419.1" y="737.9" transform="matrix(0.7064 -0.7078 0.7078 0.7064 -399.6332 514.2928)" class="st0" width="2" height="2"/>
	
		<rect id="XMLID_94_" x="419.1" y="735.1" transform="matrix(0.7064 -0.7078 0.7078 0.7064 -397.6796 513.4487)" class="st0" width="2" height="2"/>
	
		<rect id="XMLID_93_" x="417.6" y="736.5" transform="matrix(0.7078 -0.7064 0.7064 0.7078 -398.644 511.1575)" class="st0" width="2" height="2"/>
	<path id="XMLID_92_" class="st0" d="M389.1,673.2l-15.2,15.2l1.5,1.5l16.9-16.9C391.1,673,390,673,389.1,673.2z"/>
	<path id="XMLID_91_" class="st0" d="M386.2,673.2l-13.8,13.8l1.5,1.5l15.2-15.2C388.2,673.2,387.1,673.2,386.2,673.2z"/>
	<path id="XMLID_90_" class="st0" d="M364,698.2c0,1.1-0.1,2-0.1,3.1l8.6-8.6l-1.5-1.5L364,698.2z"/>
	<path id="XMLID_89_" class="st0" d="M364.2,695.1c0,1.1-0.1,2-0.1,3.1l7-7l-1.5-1.5L364.2,695.1z"/>
	
		<rect id="XMLID_88_" x="371.3" y="690.2" transform="matrix(0.7078 -0.7064 0.7064 0.7078 -379.5056 464.9959)" class="st0" width="2" height="2"/>
	
		<rect id="XMLID_87_" x="370" y="688.8" transform="matrix(0.7064 -0.7078 0.7078 0.7064 -379.3495 465.137)" class="st0" width="2" height="2"/>
	
		<rect id="XMLID_86_" x="372.8" y="688.8" transform="matrix(0.7078 -0.7064 0.7064 0.7078 -378.0882 465.5885)" class="st0" width="2" height="2"/>
	
		<rect id="XMLID_85_" x="371.3" y="687.4" transform="matrix(0.7078 -0.7064 0.7064 0.7078 -377.5039 464.1227)" class="st0" width="2" height="2"/>
	<path id="XMLID_84_" class="st0" d="M651.7,692.6l17.9,18.5c0,0,0.1,0,0.1-0.1L651.7,692.6L651.7,692.6z"/>
	<polygon id="XMLID_83_" class="st0" points="636,676.5 648.9,689.7 649,689.6 636.3,676.5 	"/>
	<polygon id="XMLID_82_" class="st0" points="638.8,676.5 650.3,688.3 650.3,688.1 639.1,676.5 	"/>
	<polygon id="XMLID_81_" class="st0" points="639.1,676.5 650.3,688.1 651.7,686.8 641.8,676.6 	"/>
	<polygon id="XMLID_80_" class="st0" points="636.3,676.5 649,689.6 650.3,688.3 638.8,676.5 	"/>
	<path id="XMLID_79_" class="st0" d="M653.1,691.2l-1.3,1.3l17.9,18.5c0.5-0.4,0.9-0.8,1.5-1.2L653.1,691.2z"/>
	<path id="XMLID_78_" class="st0" d="M653.3,691.1l18.1,18.6c0.5-0.4,0.9-0.8,1.5-1.2l-18.2-18.7L653.3,691.1z"/>
	<path id="XMLID_77_" class="st0" d="M653.1,691.2l18.1,18.6c0,0,0.1,0,0.1-0.1L653.1,691.2L653.1,691.2z"/>
	
		<rect id="XMLID_76_" x="651" y="690.9" transform="matrix(0.7165 -0.6976 0.6976 0.7165 -298.0613 650.3389)" class="st0" width="0.1" height="2"/>
	
		<rect id="XMLID_75_" x="649.5" y="689.4" transform="matrix(0.7165 -0.6976 0.6976 0.7165 -297.4603 648.8687)" class="st0" width="0.1" height="2"/>
	<polygon id="XMLID_74_" class="st0" points="649,689.6 650.3,691.1 651.7,689.7 650.3,688.3 	"/>
	<polygon id="XMLID_73_" class="st0" points="650.3,688.1 651.8,689.6 653.1,688.3 651.7,686.8 	"/>
	<polygon id="XMLID_72_" class="st0" points="651.8,689.6 653.3,691.1 654.6,689.7 653.1,688.3 	"/>
	<polygon id="XMLID_71_" class="st0" points="650.3,691.1 651.8,692.6 653.1,691.2 651.7,689.7 	"/>
	
		<rect id="XMLID_70_" x="650.9" y="687.9" transform="matrix(0.7165 -0.6976 0.6976 0.7165 -296.0168 649.404)" class="st0" width="0.1" height="2"/>
	
		<rect id="XMLID_69_" x="652.3" y="689.4" transform="matrix(0.7165 -0.6976 0.6976 0.7165 -296.7007 650.8338)" class="st0" width="0.1" height="2"/>
	<path id="XMLID_68_" class="st0" d="M671.7,713.3l2,2l0.1-0.1L671.7,713.3C671.9,713.2,671.7,713.2,671.7,713.3z"/>
	<path id="XMLID_67_" class="st0" d="M669.7,710.9C669.7,710.9,669.6,711,669.7,710.9l2,2.3c0,0,0.1,0,0.1-0.1L669.7,710.9z"/>
	<path id="XMLID_66_" class="st0" d="M675.3,713.7l1.3-1.3l-1.7-1.7c-0.5,0.4-0.9,0.8-1.5,1.2L675.3,713.7z"/>
	<path id="XMLID_65_" class="st0" d="M673.3,712l1.9,1.9L673.3,712c-0.5,0.4-0.9,0.8-1.5,1.2l2,2l1.5-1.5L673.3,712
		C673.5,711.8,673.3,712,673.3,712z"/>
	<path id="XMLID_64_" class="st0" d="M671.3,709.7l2.1,2.1c0.5-0.4,0.9-0.8,1.5-1.2l-2.1-2.1C672.3,708.9,671.9,709.3,671.3,709.7z"
		/>
	<path id="XMLID_63_" class="st0" d="M673.3,712C673.3,712,673.5,711.8,673.3,712l-2-2.3c0,0-0.1,0-0.1,0.1L673.3,712z"/>
	<path id="XMLID_62_" class="st0" d="M669.7,710.9l2.1,2.3c0.5-0.4,0.9-0.8,1.5-1.2l-2.1-2.1C670.7,710.1,670.3,710.5,669.7,710.9z"
		/>
	<path id="XMLID_59_" class="st0" d="M647.9,648c-0.3,0.1-0.5,0.3-0.8,0.4c-1.7,1.1-3.7,1.9-5.8,2.5c-0.5,0.1-1.1,0.4-1.6,0.5
		c-2.5,0.7-5.2,1.2-7.9,1.2l0,0c-0.1,0-0.4,0-0.5,0c-7.6,0-15.5-2.9-21.8-10.4h-0.7l25.1,25.8l35.8,0.4l12-12l2.9,2.9l-9.2,9.2
		l37.2,0.4c4.4-5.4,8.6-10.8,12.6-16.6c0.4-1.5,0.8-2.9,0.9-4c-3.7,1.6-8,2.5-12.4,2.5c-8.4,0-17.3-3.6-23.8-13.1l-34.6,1.9
		C653.5,643.3,651.1,646,647.9,648z"/>
	<path id="XMLID_58_" class="st0" d="M400.5,664.6c10.7-0.3,21.4-0.4,32.1-0.4c1.7,0,3.5,0,5.2,0l-4.7-4.7l2.9-2.9l7.6,7.6
		c8.4,0.1,17,0.3,25.4,0.7c6.7,0.3,13.4,0.5,19.9,0.8l17.9-17.9l-39.3,2.1c-1.6,0.4-3.1,0.7-4.8,0.8c-2.1,0.1-4.3,0.3-6.3,0.3
		c-1.6,0-3.3-0.1-4.9-0.3l-39.5,2.4L400.5,664.6z"/>
	<path id="XMLID_57_" class="st0" d="M494.5,666.1c13.2,0.5,26.4,0.9,39.6,1.3l-8-7.9l2.8-2.9l11.1,11c10.2,0.4,20.6,0.5,30.8,0.5
		c2,0,4,0,5.9,0l11.5-11.5l2.9,2.9l-8.6,8.6c3.7,0,7.4-0.1,10.8-0.1l34.4,0.4L603,642.9l-32.1,1.7c-1.6,2-3.3,3.7-5.6,5.2
		c-4.7,2.9-10.6,4.8-16.6,4.8c-6.7,0-13.5-2.3-19.4-7.8l-16.6,0.9L494.5,666.1z"/>
	<polygon id="XMLID_53_" class="st0" points="633.7,668.3 634,668.3 608.9,642.5 608.6,642.5 	"/>
	<path id="XMLID_52_" class="st0" d="M527.5,658l9.6,9.5c0.7,0,1.3,0,2,0.1c0.4,0,0.7,0,1.1,0l-11.1-11l-2.8,2.9l8,7.9
		c0.9,0,2,0.1,2.9,0.1L527.5,658z"/>
	<path id="XMLID_51_" class="st0" d="M434.4,658l6.2,6.2c0.9,0,2,0,2.9,0l-7.6-7.6l-2.9,2.9l4.7,4.7c0.9,0,1.9,0,2.9,0L434.4,658z"
		/>
	<path id="XMLID_49_" class="st0" d="M589.9,658l-10,10c0.9,0,2,0,2.9,0l8.6-8.6l-2.9-2.9l-11.5,11.5c0.9,0,2,0,2.9,0L589.9,658z"/>
	<polygon id="XMLID_48_" class="st0" points="681.9,656.7 669.9,668.7 672.7,668.7 683.4,658 672.7,668.7 675.6,668.7 684.8,659.5 	
		"/>
	<path id="XMLID_47_" class="st0" d="M491.8,665.9c0.9,0,1.9,0.1,2.8,0.1l18.5-18.5l-3.1,0.1L491.8,665.9z"/>
	<path id="XMLID_46_" class="st0" d="M509.9,647.9l-3.1,0.1l-17.9,17.9c0.9,0,1.9,0.1,2.8,0.1L509.9,647.9z"/>
	<path id="XMLID_42_" class="st0" d="M397.5,664.7l11.5-11.5l-3.1,0.1l-11.4,11.4C395.5,664.7,396.5,664.7,397.5,664.7z"/>
	<path id="XMLID_40_" class="st0" d="M412.1,653.1l-3.1,0.1l-11.5,11.5c0.9,0,2,0,2.9-0.1L412.1,653.1z"/>
	<path id="XMLID_38_" class="st0" d="M723.1,667c-0.1,0.1-0.1,0.3-0.3,0.4c0.1-0.3,0.3-0.4,0.5-0.7c0.3-0.4,0.5-0.8,0.8-1.2
		c-0.3,0.3-0.4,0.7-0.7,0.9C723.2,666.7,723.1,666.9,723.1,667z"/>
	<path id="XMLID_37_" class="st0" d="M719.2,665.8c1.5-2.4,4.7-7.1,5.1-7.8c-0.3,0.3-0.4,0.5-0.4,0.5c-0.1,0-0.1-0.1,0-0.4
		c-2.1,3.1-4.3,6-6.6,9L719.2,665.8z"/>
	<path id="XMLID_36_" class="st0" d="M726.4,662.1c-0.3,0.4-0.7,0.8-0.9,1.3C725.9,662.9,726.2,662.5,726.4,662.1z"/>
	<path id="XMLID_32_" class="st0" d="M712.7,669.1h1.3l3.1-2c2.3-2.9,4.4-5.9,6.6-9c0.1-0.9,0.9-3.3,1.6-5.6
		C721.4,658.3,717.1,663.8,712.7,669.1z"/>
	<g id="XMLID_256_">
		<path id="XMLID_259_" class="st0" d="M746,635.2c-17.3,30.4-40.3,57.2-67.3,79.1l6.2,6.4l-2.9,2.8l-6.4-6.7
			c-16.3,12.7-34,23.7-52.8,32.5l7.9,7.9l-2.8,2.9l-9.1-9c-12.8,5.8-26.1,10.6-39.9,14.3l-18.5,18.5l-1.3-1.3l-1.3,1.3L546,772.3
			c-13.1,1.9-26.5,2.9-40,2.9c-9.8,0-19.4-0.5-29-1.5L466.7,784l-1.5-1.5l-0.1-0.1l-0.1,0.1l-1.5,1.5l-14.7-14.6
			c-15.2-3.2-30.1-7.8-44.4-13.4l-8,8l-2.9-2.9l6.8-6.8c-13.5-5.6-26.4-12.2-38.7-19.8c-0.4,6.3-0.7,12.4-1.1,18.7
			c42.9,25.4,93.1,39.9,146.7,39.9c112.9,0,210.5-64.6,258.3-158.9L746,635.2z"/>
		<path id="XMLID_260_" class="st0" d="M394.6,664.7l11.4-11.4l-63.8,3.5h-0.4l-46.5,2.5c0,0.1,0,0.1,0,0.3l-0.1,4.7l-0.1,4.9
			l-0.4,7.8l-0.4,3.9v1.1c1.3,6.3,0.5,12.4,0.7,18.7c0.4,17.5,0.9,35,1.3,52.7c0.1,5.6,1.2,14.6,2.3,20.1c4.3,21.1,8.7,42.4,13,63.5
			c1.7,8.4,3.5,16.6,5.2,25c2.8-17.3,5.5-34.8,8.3-52.2c0.4,0,0.3,0,0.8,0c3.3,21.4,6.7,41.5,10.2,62.3c0.1,0.8,0.4,1.2,0.7,1.2
			c0.4,0,0.7-0.8,0.8-1.5c2.5-17.3,5.2-37.2,7.4-54.4c2.4-18.7,6-37.2,7.1-56c0.3-4.3,0.5-8.6,0.7-12.8c0.4-6.3,0.7-12.6,1.1-19
			c0.1-1.6,0.1-3.2,0.3-4.9c0.1-1.5,0.1-3.1,0.3-4.5c0.3-3.3,0.4-6.7,0.5-10c0-1.1,0.1-2,0.1-3.1c0-1.1,0.1-2,0.1-3.1
			c0.5-8.8,1.1-17.5,1.6-26.4c0-0.9,0.1-1.9,0.1-2.7c0-0.9,0.1-1.9,0.1-2.7c0-0.9,0.1-1.7,0.1-2.7c0.1-2.9,1.2-3.5,3.5-3.5
			C372.1,665.4,383.3,665.1,394.6,664.7z"/>
	</g>
	<polygon id="XMLID_27_" class="st0" points="603.4,642.8 603.2,642.8 628,668.2 628.3,668.2 	"/>
	<polygon id="XMLID_26_" class="st0" points="631.1,668.3 633.7,668.3 608.6,642.5 606.1,642.7 	"/>
	<polygon id="XMLID_25_" class="st0" points="628.3,668.2 630.8,668.3 605.9,642.7 603.4,642.8 	"/>
	<polygon id="XMLID_24_" class="st0" points="631.1,668.3 606.1,642.7 605.9,642.7 630.8,668.3 	"/>
</g>
<path id="XMLID_23_" class="st0" d="M362.1,499c6.4-0.4,10.3-4.7,11.5-8.8c0.3-0.9,0.4-2,0.4-2.8l-0.4-8.6
	c-9.8,0.3-20.7,2.7-20.2,12.2C353.5,496.7,357.5,499.3,362.1,499z"/>
<path id="XMLID_22_" class="st0" d="M506.3,491.4c6.4-0.4,10.3-4.7,11.5-8.8c0.3-0.9,0.4-2,0.4-2.8l-0.4-8.6
	c-9.8,0.3-20.7,2.7-20.2,12.2C497.7,489,501.7,491.5,506.3,491.4z"/>
<path id="XMLID_21_" class="st0" d="M481.9,558.9c-7.9,0.4-13,10.3-12,28.2c0.9,17.3,6.7,26.6,14.8,26.2c9.1-0.5,13-11.4,12-28.2
	C496,568.8,491.3,558.4,481.9,558.9z"/>
<path id="XMLID_20_" class="st0" d="M708.1,479.1c5.5-0.3,10.3-4,11.9-9.8c0.4-1.6,0.5-3.3,0.4-4.8l-0.5-8.8c-0.1-1.5-0.3-2.8-0.7-4
	c-1.9-5.1-6.6-9.1-13-8.8c-8.6,0.4-14.3,8-13.6,19.4C693.1,471.9,698.5,479.6,708.1,479.1z"/>
<path id="XMLID_19_" class="st0" d="M549.9,474.7c0,1.1,0.3,2.3,0.5,3.2c2,6.2,7.5,10.2,14,9.8c9.4-0.5,14.6-8.4,13.9-19.7
	c-0.5-9.9-6-18.1-15.6-17.5c-6.2,0.3-11.6,4.8-13.1,11.8c-0.1,1.1-0.4,2.3-0.3,3.7L549.9,474.7z"/>
<g>
	<path class="st0" d="M580.4,581.8c-7.5,2.7-11.2,8-10.8,14.2c0.1,6.7,5.5,12,13.8,11.5c7.9-0.5,12.7-5.8,12.3-12.4
		C595.1,587.2,589.3,583.8,580.4,581.8z"/>
	<path class="st0" d="M161.7,413.7l-43.6,236.9l740.7-38.4l43.6-236.9L161.7,413.7z M783.9,412.2l7-0.4l-24.6,75.3l-6.8,0.4
		L783.9,412.2z M704.4,435.9c8.6-0.4,13.5,3.7,15.8,7.8h0.3v-7.5l7.9-0.4c0,3.6,0,7.5,0.3,13.5l1.5,28.6c0.5,11.2-1.2,18.3-5.9,22.9
		c-4.5,4.7-11.4,6.6-17.5,6.8c-5.9,0.3-12.4-0.8-16.6-3.2l1.9-7c3.3,1.9,8.6,3.5,14.7,3.1c9.1-0.5,15.6-5.6,15-18.1l-0.3-5.5h-0.3
		c-2.5,4.7-7.6,8.7-15.2,9.1c-12.2,0.7-21.5-9.2-22.2-22.9C682.7,446.4,693.1,436.4,704.4,435.9z M660.8,439.2l0.8,9.6h0.4
		c1.9-6.7,7.1-11.2,13.1-11.5c1.1,0,1.7,0,2.5,0.1l0.4,8.4c-0.9-0.1-1.9-0.3-3.1-0.1c-6.3,0.3-10.6,5.4-11.4,12.2
		c-0.1,1.2-0.3,2.7-0.1,4.1l1.3,26.2l-8.8,0.5l-1.7-33.8c-0.3-5.8-0.7-10.8-1.2-15.4L660.8,439.2z M605.9,442.2l1.5,27.3
		c0.5,9.4,3.7,15.5,11.8,15.1c6-0.3,9.9-4.7,11.4-8.8c0.4-1.3,0.7-2.9,0.5-4.7l-1.6-30.2l9-0.5l1.9,35.8c0.3,5.1,0.7,9.5,1.1,13.4
		l-7.9,0.4l-0.9-8h-0.3c-2.1,4.1-7.1,9.5-15.8,10c-7.8,0.4-17.3-3.3-18.2-20.6l-1.5-28.8L605.9,442.2z M547.1,422.2l1.6,30.9h0.3
		c2.8-5.6,8.4-9.5,16.3-9.9c12.2-0.7,21.4,9.1,22.1,24.1c0.9,17.7-9.6,26.9-20.7,27.6c-7.1,0.4-13-2-17-8.4h-0.3v8.2l-7.8,0.4
		c0-3.3,0-8.4-0.3-12.7l-3.2-59.5L547.1,422.2z M517,463.8c-0.3-4-1.7-11.4-11.8-10.8c-4.5,0.3-9.2,1.9-12.6,4.3l-2.4-5.8
		c3.9-2.8,9.8-4.9,15.9-5.2c15.1-0.8,19.3,9.2,19.8,19.1l0.9,18.5c0.3,4.3,0.7,8.4,1.5,11.8l-8.2,0.4l-1.1-6.2h-0.3
		c-2.5,4-7.6,7.8-14.7,8.2c-10,0.5-15.4-6.3-15.8-13.4c-0.7-11.9,9.6-19,28.6-19.9V463.8z M448.5,427.4l2.4,45.6h0.3
		c1.1-1.7,2.8-4,4-5.9l13.5-17.8l10.8-0.5l-17.9,21.3l23.1,27.8l-10.8,0.5l-18.2-22.7l-4.3,5.4l0.9,18.5l-8.8,0.5l-3.9-72.2
		L448.5,427.4z M418.1,451.1c5.4-0.3,10,0.8,12.6,1.9l-1.6,7.1c-2.1-1.1-5.6-2-10.4-1.7c-11.2,0.5-17,9.2-16.5,19.5
		c0.7,11.4,8.3,18.1,18.1,17.5c5.1-0.3,8.4-1.7,10.8-3.1l1.9,6.7c-2.3,1.3-7.4,3.2-14,3.6c-14.8,0.8-25-8.8-25.8-23.8
		C392.3,463.6,402.1,451.9,418.1,451.1z M372.9,471.5c-0.3-4-1.7-11.4-11.8-10.8c-4.5,0.3-9.2,1.9-12.6,4.3l-2.4-5.8
		c3.9-2.8,9.8-4.9,15.9-5.2c15.1-0.8,19.3,9.2,19.8,19.1l0.9,18.5c0.3,4.3,0.7,8.4,1.5,11.8l-8.2,0.4l-1.1-6.2h-0.3
		c-2.5,4-7.6,7.8-14.7,8.2c-9.9,0.5-15.4-6.3-15.8-13.4c-0.7-11.9,9.6-19,28.6-19.9L372.9,471.5z M297.5,435.5l1.6,30.8h0.3
		c1.3-2.7,3.3-4.9,6-6.7c2.5-1.6,5.6-2.8,9-3.1c6.6-0.4,17.4,3.2,18.3,20.2l1.6,29.3l-9,0.5l-1.5-28.2c-0.4-7.9-3.7-14.4-12.2-14
		c-5.8,0.3-10.2,4.7-11.5,9.6c-0.4,1.2-0.5,2.5-0.4,4.3l1.6,29.7l-9,0.5l-3.9-72.2L297.5,435.5z M253.9,455.9l0.4,7L215.5,485v0.3
		l40.8,17.8l0.4,7l-48.6-21.8l-0.3-5.5L253.9,455.9z M411.4,623.1l-0.3-5.5l6.7-7.2c16.1-17,23.1-25.9,22.7-35.8
		c-0.4-6.7-3.9-12.7-13.8-12.2c-6,0.3-10.8,3.6-13.8,6.3l-3.2-6.2c4.4-4.1,10.7-7.4,18.3-7.8c14.2-0.8,20.7,8.7,21.3,18.2
		c0.7,12.2-7.6,22.6-20.9,36.6l-5.1,5.2v0.3l29.7-1.6l0.4,7.4L411.4,623.1z M484.6,620.3c-13,0.7-22.3-11-23.7-32.8
		c-1.2-22.2,7.8-34.9,21.1-35.6c13.9-0.8,22.5,11.2,23.7,32.4C506.9,606.7,499.3,619.5,484.6,620.3z M535.2,616.6l-3.1-57.8h-0.3
		l-11.1,6.8l-2.1-6.7l14-8.6l7.6-0.4l3.5,66.1L535.2,616.6z M583.6,614c-13.6,0.9-22.3-6.7-23-16.2c-0.5-8.2,4-14.3,11.8-18.3
		l-0.1-0.3c-7.5-2.9-11-8.3-11.2-13.9c-0.7-10.3,7.6-17.9,19-18.6c12.6-0.8,19.4,6.7,19.9,14.7c0.4,5.5-2,11.6-9.8,15.9v0.3
		c8.3,2.7,13.6,8,14.2,15.9C605.2,604.9,596,613.2,583.6,614z M187.5,553l-0.3-4l640.8-35.4l0.3,4L187.5,553z M801.1,481.2l-0.4-7
		l39.1-22.1v-0.3l-41.2-17.8l-0.4-7l48.4,21.7l0.3,5.8L801.1,481.2z"/>
	<path class="st0" d="M591.6,562.9c-0.4-5.2-3.7-10.4-11.8-9.9c-7.4,0.5-11,5.5-10.6,11.1c0.4,6.6,5.6,9.6,13.2,11.2
		C588,573.1,592,568.8,591.6,562.9z"/>
</g>
</svg>
