<?xml version="1.0" encoding="UTF-8"?>
<svg width="1372px" height="1459px" viewBox="0 0 1372 1459" version="1.1" xmlns="http://www.w3.org/2000/svg" xmlns:xlink="http://www.w3.org/1999/xlink">
    <!-- Generator: Sketch 41 (35326) - http://www.bohemiancoding.com/sketch -->
    <title>Group</title>
    <desc>Created with Sketch.</desc>
    <defs></defs>
    <g id="Page-1" stroke="none" stroke-width="1" fill="none" fill-rule="evenodd">
        <g id="the-hack-logo" transform="translate(-629.000000, -2952.000000)" fill="#FFFFFF">
            <g id="Group" transform="translate(1.000000, 0.000000)">
                <g transform="translate(628.000000, 2952.000000)" id="Shape">
                    <g transform="translate(63.000000, 180.000000)">
                        <polygon points="1277.1 108.4 1246 90.4 1214.8 108.4 1183.7 126.4 1214.8 144.4 1246 162.3 1277.1 144.4 1308.3 126.4"></polygon>
                        <polygon points="1183.7 306.2 1152.5 324.2 1121.4 342.2 1152.5 360.2 1183.7 378.2 1214.8 360.2 1246 342.2 1214.8 324.2"></polygon>
                        <polygon points="1152.5 540 1152.5 540 1121.4 522 1121.4 522 1090.2 540 1090.2 576 1090.2 576 1090.2 611.9 1121.4 594 1152.5 576 1152.5 576 1183.7 558 1183.7 558 1152.6 540"></polygon>
                        <polygon points="1152.5 108.4 1183.7 90.4 1214.8 72.4 1183.7 54.4 1152.5 36.5 1121.4 18.5 1090.2 0.5 1090.2 36.5 1090.2 72.4 1090.2 108.4 1090.2 144.4 1121.4 126.4"></polygon>
                        <polygon points="1059.1 234.3 1027.9 216.3 996.8 234.3 965.6 252.3 996.8 270.2 1027.9 288.2 1059.1 270.2 1090.2 252.3"></polygon>
                        <polygon points="903.3 288.2 872.2 306.2 872.2 306.2 872.2 306.2 841.1 324.2 841 324.2 809.9 342.2 809.9 342.2 778.7 360.2 747.6 378.2 716.4 396.1 685.3 414.1 654.1 432.1 623 450.1 654.1 468.1 685.3 486.1 716.4 468.1 747.6 450.1 778.7 432.1 809.9 414.1 841 396.1 841 396.1 872.2 378.2 872.2 378.2 903.3 360.2 903.3 360.2 934.5 342.2 965.6 324.2 934.5 306.2"></polygon>
                        <polygon points="903.3 1007.6 872.2 1025.6 872.2 1025.6 841 1043.6 809.9 1061.5 778.7 1079.5 778.7 1079.5 747.6 1097.5 747.6 1133.5 747.6 1169.4 778.7 1151.5 809.9 1133.5 809.9 1133.5 841 1115.5 872.2 1097.5 903.3 1079.5 903.3 1079.5 934.5 1061.5 965.6 1043.6 934.5 1025.6"></polygon>
                        <polygon points="654.1 72.4 685.3 54.4 654.1 36.5 623 18.5 591.9 36.5 560.7 54.4 591.9 72.4 623 54.4"></polygon>
                        <polygon points="560.7 486.1 560.7 522.1 560.7 558.1 560.7 594.1 560.7 630.1 560.7 666.1 560.7 702.1 560.7 738.1 560.7 774.1 560.7 774.1 560.7 810.1 560.7 846.1 560.7 882.1 560.7 918.1 560.7 918.1 560.7 954.1 560.7 990.1 560.7 1026.1 560.7 1062.1 560.7 1098.1 560.7 1134.1 560.7 1170.1 560.7 1206.1 560.7 1242.1 560.7 1278.1 591.8 1260.1 622.9 1242.1 622.9 1206.1 622.9 1170.1 622.9 1134.1 622.9 1098.1 622.9 1062.1 622.9 1026.1 622.9 990.1 622.9 954.1 622.9 918.1 622.9 882.1 622.9 846.1 622.9 810.1 622.9 774.1 622.9 738.1 622.9 702.1 622.9 666.1 622.9 630.1 622.9 594.1 622.9 558.1 622.9 522.1 622.9 486.1 622.9 450.1 591.8 468.1"></polygon>
                        <polygon points="591.9 108.4 623 126.4 654.1 108.4 685.3 90.4 654.1 72.4 623 90.4 591.9 72.4 560.7 90.4"></polygon>
                        <polygon points="373.8 809.8 373.8 809.8 342.7 791.8 342.7 827.8 342.7 827.8 342.7 863.7 342.7 899.7 342.7 899.7 342.7 935.7 342.7 935.7 342.7 971.6 342.7 971.6 342.7 1007.6 342.7 1043.6 342.7 1079.5 342.7 1079.5 342.7 1115.5 342.7 1115.5 342.7 1151.5 373.8 1133.5 405 1115.5 405 1079.5 405 1079.5 405 1043.6 405 1007.6 405 971.6 405 971.6 405 935.7 405 899.7 405 899.7 405 863.7 405 827.8 405 827.8 404.9 827.8"></polygon>
                        <polygon points="373.8 450.1 342.7 432.1 342.7 432.1 342.7 468.1 342.7 504 342.7 504 342.7 540 342.7 540 342.7 576 342.7 611.9 342.7 611.9 342.7 647.9 342.7 683.9 342.7 683.9 342.7 719.8 373.8 701.9 373.8 701.9 404.9 683.9 405 683.9 405 683.9 405 647.9 405 647.9 405 611.9 405 576 405 540 405 540 405 504 405 504 405 468.1"></polygon>
                        <polygon points="218.1 288.2 218.1 324.2 218.1 360.2 218.1 360.2 218.1 396.1 218.1 432.1 218.1 468.1 218.1 468.1 218.1 504 218.1 504 218.1 540 218.1 540 218.1 576 218.1 576 218.1 611.9 218.1 647.9 218.1 683.9 218.1 683.9 218.1 719.8 218.1 755.8 218.1 791.8 218.1 791.8 218.1 827.8 218.1 863.7 218.1 899.7 218.1 935.7 218.1 935.7 218.1 971.6 218.1 1007.6 218.1 1043.6 218.1 1079.5 218.1 1079.5 218.1 1079.5 249.2 1061.6 249.2 1061.5 249.2 1061.5 280.4 1043.6 280.4 1007.6 280.4 1007.6 280.4 971.6 280.4 935.7 280.4 935.7 280.4 899.7 280.4 899.7 280.4 863.7 280.4 827.8 280.4 827.8 280.4 791.8 280.4 791.8 280.4 755.8 280.4 719.8 280.4 683.9 280.4 683.9 280.4 647.9 280.4 611.9 280.4 576 280.4 540 280.4 540 280.4 504 280.4 504 280.4 468.1 280.4 432.1 280.4 396.1 280.4 360.2 280.4 360.2 280.4 324.2 280.4 288.2 280.4 252.3 280.4 252.3 249.2 270.2"></polygon>
                        <polygon points="0 162.3 0 198.3 0 234.3 0 270.2 0 306.2 0 342.2 0 378.2 0 414.1 0 450.1 0 450.1 0 486.1 0 486.1 0 522 31.1 504 31.2 504 62.3 486.1 62.3 486.1 62.3 450.1 62.3 414.1 62.3 378.2 62.3 342.2 62.3 306.2 62.3 270.2 62.3 234.3 62.3 198.3 62.3 162.3 62.3 126.4 31.2 144.4"></polygon>
                        <polygon points="0 594 0 629.9 0 665.9 0 701.9 0 737.8 0 773.8 0 809.8 0 845.7 0 881.7 0 917.7 0 953.6 31.2 935.7 62.3 917.7 62.3 881.7 62.3 845.7 62.3 809.8 62.3 773.8 62.3 737.8 62.3 701.9 62.3 665.9 62.3 629.9 31.2 611.9"></polygon>
                    </g>
                    <g transform="translate(1.000000, 162.000000)">
                        <path d="M779.4,54.5 L748.3,36.5 L717.2,18.5 L686.1,0.5 L655,18.5 L623.9,36.5 L592.8,54.5 L561.7,72.5 L530.6,90.5 L530.6,90.5 L561.7,108.5 L592.8,126.5 L623.9,144.5 L623.9,144.5 L655,162.5 L686.1,180.5 L717.2,162.5 L748.3,144.5 L748.3,144.5 L779.4,126.5 L810.5,108.5 L841.6,90.5 L841.6,90.5 L810.5,72.5 L779.4,54.5 Z M717.1,126.4 L686,144.4 L654.9,126.4 L623.8,108.4 L654.9,90.4 L623.8,72.4 L654.9,54.4 L686,36.4 L717.1,54.4 L748.2,72.4 L717.1,90.4 L748.2,108.4 L717.1,126.4 Z"></path>
                        <polygon points="1277.8 162.4 1246.7 144.4 1246.7 180.3 1246.7 216.3 1246.7 252.3 1246.7 288.2 1246.7 324.2 1277.8 342.2 1309 360.2 1309 324.2 1309 288.2 1309 252.3 1309 216.3 1309 180.3"></polygon>
                        <polygon points="1246.7 719.9 1246.7 755.8 1246.7 791.8 1246.7 827.8 1246.7 863.7 1246.7 899.7 1246.7 935.7 1277.8 953.7 1309 971.6 1309 935.7 1309 899.7 1309 863.7 1309 827.8 1309 791.8 1309 755.8 1277.8 737.8"></polygon>
                        <polygon points="1246.7 540 1246.7 540 1246.7 504 1246.7 504 1246.7 468 1246.7 432 1246.7 396 1215.6 378 1184.5 360 1184.5 396 1184.5 432 1184.5 432 1184.5 468 1184.5 504 1184.5 540 1184.5 540 1215.6 558 1215.6 558 1246.7 576"></polygon>
                        <polygon points="1028.6 270.3 1028.6 270.3 1028.6 306.2 1028.6 342.2 1028.6 378.2 1028.6 378.2 1028.6 414.1 1028.6 450.1 1028.6 486.1 1028.6 522 1028.6 522 1028.6 558 1028.6 558 1028.6 594 1028.6 629.9 1028.6 665.9 1028.6 701.9 1028.6 701.9 1028.6 737.8 1028.6 773.8 1028.6 809.8 1028.6 809.8 1028.6 845.8 1028.6 845.8 1028.6 881.7 1028.6 917.7 1028.6 917.7 1028.6 953.7 1028.6 953.7 1028.6 989.6 1028.6 1025.6 1028.6 1025.6 1028.6 1061.6 1059.8 1079.5 1059.8 1079.5 1059.8 1079.6 1090.9 1097.5 1090.9 1097.5 1090.9 1097.5 1090.9 1061.6 1090.9 1025.6 1090.9 989.6 1090.9 953.7 1090.9 953.7 1090.9 917.7 1090.9 881.7 1090.9 845.8 1090.9 809.8 1090.9 809.8 1090.9 773.8 1090.9 737.8 1090.9 701.9 1090.9 701.9 1090.9 665.9 1090.9 629.9 1090.9 594 1090.9 594 1090.9 558 1090.9 558 1090.9 522 1090.9 522 1090.9 486.1 1090.9 486.1 1090.9 450.1 1090.9 414.1 1090.9 378.2 1090.9 378.2 1090.9 342.2 1090.9 306.2 1059.8 288.2"></polygon>
                        <polygon points="686 468.1 686 504.1 686 540.1 686 576.1 686 612.1 686 648.1 686 684.1 686 720.1 686 756.1 686 792.1 686 828.1 686 864.1 686 900.1 686 936.1 686 972.1 686 1008.1 686 1044.1 686 1080.1 686 1116.1 686 1152.1 686 1188.1 686 1224.1 686 1260.1 717.1 1278.1 748.2 1296.1 748.2 1260.1 748.2 1224.1 748.2 1188.1 748.2 1152.1 748.2 1116.1 748.2 1080.1 748.2 1044.1 748.2 1008.1 748.2 972.1 748.2 936.1 748.2 936.1 748.2 900.1 748.2 864.1 748.2 828.1 748.2 792.1 748.2 792.1 748.2 756.1 748.2 720.1 748.2 684.1 748.2 648.1 748.2 612.1 748.2 576.1 748.2 540.1 748.2 504.1 717.1 486.1"></polygon>
                        <polygon points="623.7 432.1 592.6 414.1 561.4 396.2 530.3 378.2 499.1 360.2 499.1 360.2 468 342.2 467.9 342.2 436.8 324.2 436.8 324.2 436.8 324.2 405.7 306.2 374.5 324.2 343.4 342.2 374.5 360.2 405.7 378.2 405.7 378.2 436.8 396.2 436.8 396.2 468 414.1 468 414.1 499.1 432.1 530.3 450.1 561.4 468.1 592.6 486.1 623.7 504.1 654.9 486.1 686 468.1 654.9 450.1"></polygon>
                        <polygon points="530.3 737.9 530.3 737.8 530.2 737.8 499.1 719.9 499.1 719.9 468 701.9 467.9 701.9 436.8 719.9 436.8 719.9 405.7 737.8 405.7 737.9 436.8 755.8 436.8 755.8 467.9 773.8 468 773.8 499.1 791.8 499.1 791.8 499.1 791.8 530.2 809.8 530.3 809.8 561.4 827.8 561.4 827.8 561.4 791.8 561.4 791.8 561.4 755.8 561.4 755.8"></polygon>
                        <polygon points="312.2 252.3 281.1 234.3 249.9 252.3 218.8 270.3 249.9 288.2 281.1 306.2 312.2 288.2 343.4 270.3"></polygon>
                        <polygon points="187.6 540 156.5 522 156.5 522 125.4 504 125.4 504 94.3 522 94.3 522 94.3 522 63 540 94.1 558 94.1 558 94.1 558 125.2 576 125.2 576 125.2 576 156.3 594 156.3 594 187.4 612 218.5 630 218.5 594 218.5 594 218.5 558"></polygon>
                        <polygon points="156.5 126.4 187.6 144.4 218.8 162.4 218.8 126.4 218.8 90.4 218.8 54.5 218.8 18.5 187.6 36.5 156.5 54.5 125.3 72.4 94.2 90.4 125.3 108.4"></polygon>
                        <polygon points="94.2 162.4 125.3 144.4 94.2 126.4 63 108.4 31.9 126.4 0.7 144.4 31.9 162.4 63 180.3"></polygon>
                    </g>
                    <g>
                        <polygon points="1122.1 342.3 1122.1 306.4 1122.1 270.4 1090.9 288.4 1059.8 306.4 1028.6 324.4 1028.6 288.4 1059.8 270.4 1090.9 252.4 1059.8 234.4 1059.8 234.4 1028.6 216.5 1028.6 216.4 1028.6 180.5 1059.8 198.5 1059.8 198.5 1059.8 198.5 1090.9 216.5 1122.1 234.4 1122.1 198.5 1122.1 162.5 1122.1 162.5 1090.9 144.5 1090.9 144.5 1090.9 144.5 1059.8 126.5 1059.8 126.5 1028.6 108.6 997.5 90.6 997.5 90.6 966.3 72.6 966.3 108.5 966.3 108.6 966.3 144.5 966.3 144.5 966.3 180.5 966.3 216.5 966.3 252.4 966.3 252.4 966.3 288.4 966.3 288.4 966.3 324.4 966.3 324.4 966.3 360.3 966.3 396.3 966.3 396.3 966.3 432.3 997.5 414.3 1028.6 396.3 1059.8 378.3 1059.8 378.3 1090.9 360.3"></polygon>
                        <polygon points="1340.1 324.4 1309 342.4 1309 378.4 1309 414.4 1309 450.4 1309 486.4 1309 522.4 1277.9 540.4 1246.8 558.4 1246.8 594.4 1246.8 630.4 1246.8 666.4 1246.8 666.4 1246.8 666.4 1246.8 702 1246.8 702 1246.8 702 1246.8 737.9 1246.8 737.9 1246.8 737.9 1215.7 755.9 1215.7 755.9 1184.6 773.9 1153.5 791.9 1153.5 755.9 1153.5 755.9 1153.5 719.9 1153.5 683.9 1153.5 647.9 1153.5 647.9 1153.5 611.9 1153.5 575.9 1153.5 539.9 1153.5 539.9 1153.5 503.9 1153.5 467.9 1153.5 431.9 1122.4 449.9 1091.3 467.9 1091.3 503.9 1091.3 539.9 1091.3 539.9 1091.3 575.9 1091.3 611.9 1091.3 647.9 1091.3 647.9 1091.3 683.9 1091.3 683.9 1091.3 719.9 1091.3 719.9 1091.3 755.9 1091.3 755.9 1091.3 791.9 1091.3 827.9 1091.3 863.9 1091.3 863.9 1091.3 899.9 1091.3 935.9 1091.3 971.9 1091.3 971.9 1091.3 1007.9 1091.3 1043.9 1091.3 1079.9 1091.3 1115.9 1091.3 1115.9 1091.3 1151.9 1091.3 1187.9 1091.3 1223.9 1091.3 1259.9 1122.4 1241.9 1122.4 1241.9 1153.5 1223.9 1153.5 1223.9 1153.5 1187.9 1153.5 1151.9 1153.5 1115.9 1153.5 1079.9 1153.5 1043.9 1153.5 1007.9 1153.5 971.9 1153.5 935.9 1153.5 899.9 1153.5 863.9 1153.5 863.9 1184.6 845.9 1215.7 863.9 1246.8 881.9 1277.9 899.9 1309 917.9 1309 953.9 1309 989.9 1309 1025.9 1309 1061.9 1309 1097.9 1309 1133.9 1340.1 1115.9 1371.2 1097.9 1371.2 1061.9 1371.2 1025.9 1371.2 989.9 1371.2 953.9 1371.2 917.9 1371.2 881.9 1340.1 863.9 1309 845.9 1277.9 827.9 1246.8 809.9 1277.9 791.9 1309 773.9 1309 773.9 1309 737.9 1309 737.9 1309 701.9 1309 665.9 1309 665.9 1309 629.9 1309 629.9 1309 593.9 1340.1 575.9 1371.2 557.9 1371.2 521.9 1371.2 485.9 1371.2 449.9 1371.2 413.9 1371.2 377.9 1371.2 341.9 1371.2 305.9"></polygon>
                        <polygon points="966.3 540.2 966.3 540.2 935.2 558.2 935.2 558.2 904.1 576.2 904.1 576.2 873 594.2 841.9 612.2 810.8 630.2 779.7 648.2 748.6 666.2 748.6 702.2 748.6 738.2 748.6 774.2 748.6 810.2 748.6 846.2 748.6 882.2 748.6 918.2 748.6 954.2 748.6 954.2 748.6 990.2 748.6 1026.2 748.6 1062.2 748.6 1098.2 748.6 1098.2 748.6 1134.2 748.6 1170.2 748.6 1206.2 748.6 1242.2 748.6 1278.2 748.6 1314.2 748.6 1350.2 748.6 1386.2 748.6 1422.2 748.6 1458.2 779.7 1440.2 810.8 1422.2 841.9 1404.2 873 1386.2 904.1 1368.2 904.1 1368.2 935.2 1350.2 966.3 1332.2 997.4 1314.2 997.4 1314.2 1028.5 1296.2 1028.5 1260.2 1028.5 1260.2 1028.5 1224.2 997.4 1242.2 966.3 1260.2 966.3 1260.2 935.2 1278.2 904.1 1296.2 873 1314.2 873 1314.2 841.9 1332.2 810.8 1350.2 810.8 1314.2 810.8 1278.2 810.8 1242.2 810.8 1206.2 810.8 1206.2 810.8 1170.2 810.8 1134.2 810.8 1098.2 810.8 1098.2 810.8 1062.2 810.8 1026.2 810.8 1026.2 810.8 990.2 810.8 954.2 810.8 954.2 810.8 918.2 810.8 918.2 810.8 882.2 810.8 882.2 810.8 846.2 810.8 810.2 810.8 774.2 810.8 738.2 810.8 702.2 841.9 684.2 873 666.2 904.1 648.2 935.2 630.2 935.2 630.2 966.3 612.2 997.4 594.2 997.4 594.2 1028.5 576.2 1028.5 540.2 1028.5 540.2 1028.5 504.2 997.4 522.2"></polygon>
                        <path d="M748.3,450.2 L779.4,432.2 L779.4,432.2 L779.4,432.2 L810.5,414.2 L810.5,414.2 L841.6,396.2 L841.6,432.2 L841.6,432.2 L841.6,468.2 L841.6,504.2 L841.6,504.2 L841.6,504.2 L872.7,486.2 L872.7,486.2 L872.7,486.2 L903.8,468.2 L903.8,432.2 L903.8,432.2 L903.8,396.2 L903.8,396.2 L903.8,360.2 L903.8,324.2 L903.8,324.2 L903.8,288.2 L903.8,252.2 L903.8,252.2 L903.8,216.2 L903.8,180.2 L903.8,144.2 L903.8,144.2 L903.8,108.2 L903.8,72.2 L903.8,36.2 L903.8,36.2 L872.7,18.2 L841.6,0.2 L841.6,36.2 L841.6,72.2 L841.6,108.2 L810.5,90.2 L779.4,72.2 L748.3,54.2 L717.2,36.2 L686.1,18.2 L655,36.2 L623.9,54.2 L592.8,72.2 L561.7,90.2 L530.6,108.2 L530.6,72.2 L530.6,36.2 L530.6,0.2 L499.5,18.2 L468.4,36.2 L468.4,36.2 L437.3,54.2 L406.2,72.2 L375.1,90.2 L375.1,90.2 L344,108.2 L312.9,126.2 L312.9,126.2 L281.8,144.2 L281.8,144.2 L281.8,144.2 L250.7,162.2 L250.7,162.2 L250.7,198.2 L250.7,234.2 L281.8,216.2 L312.9,198.2 L312.9,198.2 L312.9,198.2 L344,180.2 L344,216.2 L344,216.2 L344,252.2 L344,288.2 L344,288.2 L344,324.2 L344,324.2 L344,360.2 L344,396.2 L344,396.2 L375.1,414.2 L406.2,432.2 L406.2,396.2 L406.2,396.2 L406.2,360.2 L406.2,324.2 L406.2,324.2 L406.2,288.2 L406.2,288.2 L406.2,252.2 L406.2,252.2 L406.2,216.2 L406.2,180.2 L406.2,144.2 L406.2,144.2 L437.3,126.2 L468.4,108.2 L468.4,144.2 L468.4,144.2 L468.4,180.2 L468.4,216.2 L468.4,252.2 L468.4,252.2 L468.4,288.2 L468.4,324.2 L468.4,324.2 L468.4,360.2 L468.4,396.2 L468.4,396.2 L468.4,432.2 L468.4,432.2 L468.4,468.2 L499.5,486.2 L499.5,486.2 L499.5,486.2 L530.6,504.2 L530.6,504.2 L530.6,504.2 L530.6,468.2 L530.6,432.2 L530.6,432.2 L530.6,396.2 L561.7,414.2 L561.7,414.2 L592.8,432.2 L592.8,432.2 L592.8,432.2 L623.9,450.2 L623.9,450.2 L655,468.2 L686.1,486.2 L717.2,468.2 L748.3,450.2 L748.3,450.2 Z M654.9,396.3 L623.8,378.3 L592.7,360.3 L592.7,360.3 L561.6,342.3 L530.5,324.3 L530.5,288.3 L530.5,252.3 L530.5,252.3 L530.5,216.3 L530.5,180.3 L561.6,162.3 L592.7,144.3 L623.8,126.3 L654.9,108.3 L686,90.3 L717.1,108.3 L748.2,126.3 L779.3,144.3 L810.4,162.3 L841.5,180.3 L841.5,216.3 L841.5,252.3 L841.5,252.3 L841.5,288.3 L841.5,324.3 L810.4,342.3 L779.3,360.3 L779.3,360.3 L748.2,378.3 L717.1,396.3 L686,414.3 L654.9,396.3 Z"></path>
                        <polygon points="686 234.4 654.9 252.4 686 270.4 717.1 252.4"></polygon>
                        <path d="M561.4,630.1 L530.3,612.1 L499.2,594.1 L468.1,576.1 L468.1,576.1 L437,558.1 L437,558.1 L405.9,540.1 L405.9,540.1 L374.8,522.1 L343.7,504.1 L343.7,540.1 L343.7,540.1 L343.7,576.1 L343.7,612.1 L343.7,648.1 L343.7,684.1 L343.7,684.1 L343.7,720.1 L343.7,720.1 L343.7,756.1 L343.7,792.1 L343.7,828.1 L343.7,864.1 L343.7,864.1 L343.7,900.1 L343.7,936.1 L343.7,972.1 L343.7,972.1 L343.7,1008.1 L343.7,1008.1 L343.7,1044.1 L343.7,1080.1 L343.7,1080.1 L343.7,1116.1 L343.7,1116.1 L343.7,1152.1 L343.7,1188.1 L343.7,1188.1 L343.7,1224.1 L343.7,1260.1 L343.7,1260.1 L343.7,1296.1 L374.8,1314.1 L374.8,1314.1 L405.9,1332.1 L405.9,1296.1 L405.9,1296.1 L405.9,1260.1 L405.9,1260.1 L405.9,1224.1 L405.9,1188.1 L405.9,1152.1 L405.9,1152.1 L405.9,1116.1 L405.9,1116.1 L405.9,1080.1 L405.9,1080.1 L405.9,1044.1 L405.9,1008.1 L405.9,1008.1 L405.9,972.1 L437,990.1 L437,990.1 L468.1,1008.1 L468.1,1008.1 L468.1,1008.1 L499.2,1026.1 L499.2,1026.1 L530.3,1044.1 L530.3,1044.1 L561.4,1062.1 L561.4,1098.1 L561.4,1098.1 L561.4,1134.1 L561.4,1170.1 L561.4,1206.1 L561.4,1206.1 L561.4,1242.1 L561.4,1278.1 L561.4,1314.1 L561.4,1350.1 L561.4,1386.1 L561.4,1422.1 L592.5,1440.1 L623.6,1458.1 L623.6,1422.1 L623.6,1386.1 L623.6,1350.1 L623.6,1314.1 L623.6,1278.1 L623.6,1242.1 L623.6,1206.1 L623.6,1170.1 L623.6,1134.1 L623.6,1098.1 L623.6,1098.1 L623.6,1062.1 L623.6,1026.1 L623.6,990.1 L623.6,954.1 L623.6,954.1 L623.6,918.1 L623.6,882.1 L623.6,846.1 L623.6,810.1 L623.6,774.1 L623.6,738.1 L623.6,702.1 L623.6,666.1 L592.5,648.1 L561.4,630.1 Z M561.4,738 L561.4,774 L561.4,810 L561.4,846 L561.4,882 L561.4,882 L561.4,918 L561.4,918 L561.4,954 L561.4,954 L561.4,990 L561.4,990 L530.3,972 L530.3,972 L499.2,954 L499.2,954 L499.2,954 L468.1,936 L468.1,936 L437,918 L437,918 L405.9,900 L405.9,900 L405.9,864 L405.9,864 L405.9,828 L405.9,792 L405.9,792 L405.9,756 L405.9,720 L405.9,720 L405.9,684 L405.9,684 L405.9,648 L405.9,612 L405.9,612 L437,630 L437,630 L468.1,648 L499.2,666 L530.3,684 L561.4,702 L561.4,738 Z"></path>
                        <polygon points="218.8 432.3 218.8 468.3 218.8 504.3 218.8 540.3 218.8 576.3 218.8 612.3 218.8 648.3 218.8 684.3 218.8 720.3 218.8 756.3 218.8 792.3 187.7 774.3 156.6 756.3 125.5 738.3 94.4 720.3 63 702 63 666 63 630 63 594 63 558 63 522 63 486 63 450 63 414 63 378 63 342 31.9 324 0.8 306 0.8 342 0.8 378 0.8 414 0.8 450 0.8 486 0.8 522 0.8 558 0.8 594 0.8 630 0.8 666 0.8 702 0.8 738 0.8 774 0.8 810 0.8 846 0.8 882 0.8 918 0.8 954 0.8 990 0.8 1026 0.8 1062 0.8 1098 31.9 1116 63 1134 63 1098 63 1062 63 1026 63 990 63 954 63 918 63 882 63 846 63 810 63 774 94.1 792 125.2 810 156.3 828 187.4 846 218.5 864 218.5 900 218.5 936 218.5 972 218.5 1008 218.5 1044 218.5 1080 218.5 1116 218.5 1152 218.5 1188 218.5 1224 249.6 1242 280.7 1260 280.7 1224 280.7 1188 280.7 1152 280.7 1116 280.7 1080 280.7 1044 280.7 1008 280.7 972 280.7 936 280.7 900 280.7 864 280.7 828 280.7 792 280.7 756 280.7 720 280.7 684 280.7 648 280.7 612 280.7 576 280.7 540 280.7 504 280.7 468 249.6 450"></polygon>
                    </g>
                </g>
            </g>
        </g>
    </g>
</svg>